<?xml version="1.0" encoding="utf-8"?>
<!-- Generator: Adobe Illustrator 16.0.0, SVG Export Plug-In . SVG Version: 6.00 Build 0)  -->
<!DOCTYPE svg PUBLIC "-//W3C//DTD SVG 1.1//EN" "http://www.w3.org/Graphics/SVG/1.1/DTD/svg11.dtd">
<svg version="1.1" id="Capa_1" xmlns="http://www.w3.org/2000/svg" xmlns:xlink="http://www.w3.org/1999/xlink" x="0px" y="0px"
	 width="293.173px" height="293.173px" viewBox="0 0 293.173 293.173" enable-background="new 0 0 293.173 293.173"
	 xml:space="preserve">
<path d="M293.173,293.173H0V0h293.173V293.173z M14.173,279H279V14.173H14.173V279z"/>
<g>
	<path d="M64.76,43.529h45.484v11.076h-14.61v31.117H79.37V54.604H64.76V43.529z"/>
	<path d="M120.58,85.722V43.529h16.264v14.24h15.368v-14.24h16.264v42.193h-16.264v-16.35h-15.368v16.35H120.58z"/>
	<path d="M181.913,85.722V43.529h40.453v9.845h-24.189v6.036h20.468v9.845h-20.468v6.622h25.154v9.845H181.913z"/>
	<path d="M67.585,167.845v-42.192h23.707c2.986,0,5.674,0.167,8.063,0.498c2.388,0.332,4.479,0.899,6.271,1.699
		c1.792,0.801,3.193,1.896,4.204,3.282c1.01,1.387,1.516,3.097,1.516,5.127c0,1.993-0.632,3.78-1.895,5.362
		c-1.264,1.582-2.791,2.862-4.583,3.838c2.619,0.586,4.652,1.758,6.099,3.516c1.447,1.758,2.17,3.809,2.17,6.153
		c0,2.305-0.494,4.278-1.481,5.918c-0.988,1.641-2.412,2.959-4.273,3.956c-1.86,0.996-4.089,1.72-6.685,2.168
		c-2.596,0.45-5.571,0.674-8.924,0.674H67.585z M83.849,135.498v7.032h6.754c1.654,0,2.998-0.322,4.031-0.967
		s1.551-1.553,1.551-2.725c0-1.484-0.541-2.412-1.62-2.784c-1.08-0.371-2.746-0.557-4.996-0.557H83.849z M83.849,150.207V158h7.098
		c2.25,0,3.985-0.283,5.203-0.85c1.217-0.566,1.826-1.572,1.826-3.018c0-1.679-0.724-2.754-2.171-3.223
		c-1.447-0.469-3.71-0.703-6.788-0.703H83.849z"/>
	<path d="M140.152,153.137v14.708h-16.264v-42.192h23.431c8.085,0,13.771,0.947,17.056,2.842c3.285,1.896,4.928,4.952,4.928,9.171
		c0,2.54-0.701,4.728-2.102,6.563c-1.402,1.836-3.48,3.086-6.236,3.75c1.652,0.508,2.928,0.967,3.824,1.377
		c0.895,0.41,1.699,0.987,2.412,1.729c0.711,0.743,1.25,1.758,1.619,3.047c0.367,1.29,0.551,2.97,0.551,5.04
		c0,3.165,0.092,5.186,0.275,6.065s0.666,1.318,1.447,1.318v1.289h-16.471c-0.23-0.507-0.424-1.436-0.586-2.783
		c-0.16-1.348-0.24-2.88-0.24-4.6c0-1.484-0.104-2.675-0.311-3.575c-0.207-0.898-0.609-1.621-1.206-2.168
		c-0.598-0.546-1.459-0.947-2.584-1.201c-1.126-0.253-2.653-0.381-4.583-0.381H140.152z M140.152,143.878h6.409
		c2.619,0,4.56-0.312,5.824-0.938c1.262-0.625,1.895-1.641,1.895-3.047c0-1.445-0.598-2.539-1.792-3.281
		c-1.195-0.742-2.78-1.114-4.755-1.114h-7.581V143.878z"/>
	<path d="M216.75,126.327c3.284,1.192,6.019,2.833,8.201,4.922c2.182,2.09,3.812,4.445,4.893,7.062
		c1.079,2.618,1.619,5.353,1.619,8.204c0,3.516-0.654,6.671-1.964,9.464c-1.31,2.793-3.147,5.157-5.513,7.091
		c-2.367,1.934-5.135,3.398-8.305,4.395s-6.593,1.494-10.269,1.494c-3.858,0-7.385-0.498-10.578-1.494s-5.938-2.471-8.235-4.424
		c-2.298-1.953-4.065-4.336-5.306-7.149c-1.241-2.813-1.861-5.978-1.861-9.494c0-3.242,0.62-6.221,1.861-8.937
		c1.24-2.715,3.02-5.04,5.341-6.974c2.319-1.934,5.075-3.408,8.27-4.424c3.192-1.016,6.695-1.524,10.509-1.524
		C209.687,124.539,213.465,125.135,216.75,126.327z M200.796,135.878c-1.24,0.684-2.239,1.583-2.997,2.696
		c-0.759,1.113-1.299,2.354-1.62,3.721c-0.321,1.368-0.482,2.774-0.482,4.219c0,1.485,0.149,2.921,0.448,4.307
		c0.298,1.387,0.815,2.677,1.551,3.868c0.734,1.192,1.745,2.149,3.032,2.872c1.285,0.724,2.848,1.084,4.686,1.084
		c3.354,0,5.824-1.094,7.409-3.282c1.585-2.188,2.377-5.137,2.377-8.849c0-1.484-0.184-2.92-0.551-4.307
		c-0.368-1.386-0.954-2.637-1.758-3.75s-1.838-1.992-3.101-2.637c-1.265-0.645-2.769-0.967-4.515-0.967
		S202.038,135.195,200.796,135.878z"/>
	<path d="M63.382,208.908l17.78-42.193h16.54l17.78,42.193H99.286l-1.93-5.567H81.162l-1.861,5.567H63.382z M89.293,179.431
		l-5.031,15.119h10.268L89.293,179.431z"/>
	<path d="M124.164,208.908v-42.193h21.777c8.224,0,14.599,1.67,19.124,5.011s6.787,8.409,6.787,15.207
		c0,3.907-0.609,7.258-1.826,10.05c-1.217,2.794-2.975,5.069-5.271,6.827c-2.297,1.759-5.055,3.048-8.27,3.868
		c-3.217,0.82-6.869,1.23-10.958,1.23H124.164z M140.428,199.063h3.446c3.859,0,6.776-0.918,8.752-2.755
		c1.975-1.836,2.963-4.707,2.963-8.614c0-4.297-0.895-7.228-2.687-8.79c-1.792-1.562-4.917-2.344-9.373-2.344h-3.101V199.063z"/>
	<path d="M212.512,182.83c-0.23-2.188-1.126-3.887-2.688-5.098c-1.562-1.211-3.607-1.816-6.134-1.816
		c-2.895,0-5.146,1.045-6.753,3.135c-1.609,2.09-2.412,5.148-2.412,9.171c0,1.642,0.138,3.127,0.413,4.454
		c0.275,1.328,0.758,2.529,1.447,3.604c0.689,1.075,1.688,1.915,2.998,2.521s2.951,0.908,4.927,0.908
		c2.481,0,4.411-0.654,5.789-1.964c1.379-1.308,2.229-3.037,2.55-5.186h15.644c-0.735,5.431-3.228,9.698-7.477,12.805
		c-4.251,3.105-9.66,4.658-16.229,4.658c-4.044,0-7.696-0.508-10.958-1.523c-3.263-1.016-6.042-2.5-8.339-4.454
		c-2.298-1.953-4.043-4.307-5.237-7.062c-1.195-2.754-1.791-5.831-1.791-9.229c0-3.359,0.631-6.407,1.895-9.142
		s3.021-5.078,5.272-7.032c2.25-1.953,4.881-3.438,7.891-4.454c3.008-1.016,6.236-1.523,9.683-1.523
		c7.487,0,13.357,1.494,17.607,4.483c4.249,2.988,6.695,7.237,7.339,12.745H212.512z"/>
	<path d="M63.382,249.969l17.78-42.193h16.54l17.78,42.193H99.286l-1.93-5.567H81.162l-1.861,5.567H63.382z M89.293,220.493
		l-5.031,15.119h10.268L89.293,220.493z"/>
	<path d="M154.28,220.024c-0.23-1.328-1.012-2.285-2.343-2.871c-1.149-0.508-2.55-0.763-4.204-0.763
		c-3.446,0-5.168,0.802-5.168,2.403c0,1.094,0.769,1.943,2.309,2.549c1.539,0.606,3.985,1.241,7.339,1.904
		c2.895,0.626,5.295,1.202,7.201,1.729s3.767,1.27,5.582,2.227c1.814,0.958,3.284,2.197,4.411,3.721
		c1.125,1.524,1.688,3.399,1.688,5.626c0,4.728-2.103,8.332-6.306,10.812c-4.204,2.481-9.845,3.721-16.919,3.721
		c-3.17,0-6.099-0.372-8.787-1.113c-2.688-0.741-4.996-1.768-6.926-3.076s-3.435-2.813-4.514-4.513
		c-1.08-1.699-1.666-3.506-1.757-5.421h15.574c0.321,1.485,1.217,2.599,2.688,3.341c1.332,0.703,2.871,1.055,4.617,1.055
		c2.067,0,3.709-0.273,4.927-0.82c1.217-0.547,1.826-1.309,1.826-2.286c0-1.093-0.747-1.934-2.24-2.52
		c-1.493-0.586-3.917-1.21-7.27-1.875c-2.895-0.586-5.307-1.143-7.236-1.67s-3.814-1.279-5.651-2.257
		c-1.838-0.976-3.32-2.265-4.445-3.867c-1.126-1.602-1.688-3.575-1.688-5.919c0-4.337,1.975-7.667,5.926-9.991
		c3.951-2.324,9.142-3.487,15.575-3.487c3.354,0,6.306,0.343,8.855,1.025c2.55,0.685,4.687,1.632,6.409,2.843
		s3.077,2.628,4.066,4.248c0.987,1.622,1.619,3.37,1.895,5.245H154.28z"/>
	<path d="M182.878,207.776h45.483v11.076h-14.61v31.117h-16.264v-31.117h-14.609V207.776z"/>
</g>
<g>
	<g>
		<path d="M60.355,85.41c-0.43,0.139-1.051,0.5-1.863,1.08c-0.337-0.046-0.72-0.069-1.149-0.069c-2.043,0-5.294,0.366-9.752,1.097
			l-4.023,0.644c-0.116,0-0.54-0.041-1.271-0.122c-0.731-0.093-1.161-0.14-1.289-0.14c-0.627,0-1.387,0.18-2.281,0.54
			c-0.987,0.383-1.591,0.807-1.811,1.271c-0.325,0.731-0.604,1.939-0.836,3.623c-0.221,1.509-0.331,2.786-0.331,3.831
			c0,0.104,0.128,0.511,0.383,1.219c2.31-0.337,3.756-0.505,4.336-0.505h10.031v1.533c-0.662,0.081-1.544,0.122-2.647,0.122
			c-0.383,0-1.225-0.011-2.525-0.035l-2.507-0.035c-1.057,0-2.398,0.325-4.023,0.975c-0.313,0.082-1.045,0.238-2.194,0.47
			c-0.917,0.186-1.532,0.563-1.846,1.132c-0.546,4.795-0.819,8.185-0.819,10.17c0.406,0.499,0.824,0.795,1.254,0.888l2.804,0.575
			c0.894,0,1.898-0.052,3.013-0.157c2.508-0.221,5.434-0.331,8.777-0.331c0.731,0,1.387,0.023,1.968,0.07l0.888,0.035
			c0.359,0.093,0.54,0.273,0.54,0.54v0.888c-0.696,0.325-2.038,0.488-4.022,0.488c-0.302,0-0.772,0.104-1.411,0.313l-0.923,0.313
			c-0.163,0-0.662-0.058-1.498-0.174c-0.662-0.081-1.126-0.122-1.393-0.122c-0.058,0-0.104,0-0.139,0l-0.296,0.017
			c-0.673,0.047-2.211,0.227-4.615,0.54c-1.417,0.186-2.206,0.279-2.368,0.279c-0.65,0-1.625-0.406-2.926-1.219
			c-1.405-0.882-2.107-1.643-2.107-2.281c0-0.279,0.145-1.515,0.435-3.709c0.395-2.867,0.754-5.242,1.08-7.123
			c-0.406-0.29-0.609-0.743-0.609-1.358c0-0.069,0.012-0.267,0.035-0.592c0.023-0.337,0.035-0.534,0.035-0.592
			c1.3-0.418,2.026-3.152,2.177-8.202c-0.708-0.36-1.753-0.969-3.135-1.829v-1.515c0.302-0.453,0.801-0.708,1.498-0.766
			c1.021-0.058,1.596-0.116,1.724-0.174c0.128-0.035,0.395-0.261,0.801-0.679c0.372-0.395,0.673-0.592,0.905-0.592
			c0.082,0,0.372,0.093,0.871,0.278c0.499,0.186,0.807,0.279,0.923,0.279c0.766-0.081,2.374-0.244,4.824-0.488
			c1.161-0.104,3.913-0.325,8.254-0.662c0.128-0.011,0.569-0.136,1.324-0.375c0.754-0.238,1.172-0.357,1.254-0.357
			c0.186,0,0.557,0.029,1.114,0.087l1.01,0.122c0.987,0.046,2.351,0.07,4.092,0.07L60.355,85.41z"/>
		<path d="M36.515,116.874c-0.753,0-1.797-0.424-3.191-1.295c-1.598-1.003-2.342-1.863-2.342-2.705c0-0.193,0.045-0.795,0.439-3.775
			c0.375-2.723,0.722-5.029,1.035-6.862c-0.378-0.38-0.569-0.901-0.569-1.553c0-0.073,0.012-0.283,0.036-0.627
			c0.021-0.314,0.034-0.5,0.034-0.557l0.001-0.363l0.346-0.113c0.592-0.19,1.607-1.416,1.82-7.428
			c-0.706-0.375-1.675-0.947-2.889-1.702L31,89.746v-1.944l0.084-0.126c0.389-0.584,1.019-0.916,1.872-0.987
			c1.272-0.073,1.535-0.127,1.586-0.142c0.022-0.009,0.164-0.09,0.623-0.562c0.476-0.505,0.879-0.743,1.264-0.743
			c0.12,0,0.273,0.023,1.045,0.31c0.603,0.225,0.752,0.247,0.768,0.249c0.695-0.079,2.304-0.242,4.755-0.486
			c1.167-0.105,3.92-0.325,8.266-0.663c0.031-0.004,0.24-0.046,1.212-0.353c1.206-0.38,1.307-0.38,1.404-0.38
			c0.194,0,0.583,0.029,1.166,0.089l1.019,0.123c0.941,0.043,2.311,0.066,4.032,0.066h0.35l0.56,1.53l-0.494,0.16
			c-0.26,0.084-0.77,0.328-1.727,1.011l-0.162,0.115l-0.196-0.026c-0.315-0.043-0.68-0.065-1.082-0.065
			c-2.007,0-5.26,0.367-9.671,1.09l-4.025,0.645c-0.174,0.006-0.408-0.008-1.405-0.118c-0.995-0.127-1.196-0.137-1.234-0.137
			c-0.559,0-1.264,0.169-2.095,0.504c-1.132,0.439-1.454,0.829-1.546,1.021c-0.3,0.674-0.568,1.848-0.792,3.477
			c-0.217,1.482-0.326,2.747-0.326,3.763l0,0c0.003,0,0.033,0.134,0.217,0.666c2.116-0.304,3.428-0.452,4.002-0.452h10.531v2.475
			l-0.439,0.054c-0.679,0.083-1.59,0.125-2.708,0.125c-0.385,0-1.229-0.011-2.534-0.035l-2.505-0.035
			c-0.981,0-2.272,0.316-3.831,0.939c-0.377,0.102-1.117,0.261-2.281,0.496c-0.715,0.145-1.206,0.416-1.46,0.805
			c-0.517,4.554-0.786,7.856-0.802,9.824c0.292,0.327,0.581,0.522,0.858,0.583l2.749,0.563c0.862-0.002,1.843-0.054,2.916-0.155
			c2.514-0.221,5.481-0.333,8.824-0.333c0.739,0,1.415,0.024,2.008,0.071l0.973,0.049c0.825,0.213,0.915,0.787,0.915,1.024v1.206
			l-0.289,0.135c-0.771,0.36-2.155,0.535-4.234,0.535c-0.17,0-0.526,0.05-1.255,0.289l-1.079,0.338c-0.13,0-0.425-0.021-1.567-0.179
			c-0.63-0.077-1.079-0.117-1.324-0.117l-0.407,0.016c-0.659,0.046-2.202,0.227-4.579,0.537
			C37.044,116.84,36.65,116.874,36.515,116.874z M32.941,99.828c-0.005,0.084-0.012,0.183-0.02,0.297
			c-0.022,0.307-0.034,0.492-0.034,0.557c0,0.597,0.228,0.829,0.4,0.952l0.256,0.182l-0.054,0.31
			c-0.322,1.865-0.685,4.256-1.077,7.106c-0.374,2.833-0.43,3.497-0.43,3.641c0,0.205,0.183,0.796,1.873,1.858
			c1.51,0.944,2.28,1.143,2.659,1.143c0.067,0,0.424-0.028,2.304-0.274c2.397-0.313,3.96-0.496,4.645-0.543l0.47-0.018
			c0.29,0,0.766,0.041,1.454,0.125c0.875,0.122,1.225,0.157,1.364,0.167l0.835-0.284c0.7-0.229,1.212-0.34,1.571-0.34
			c1.949,0,2.979-0.162,3.522-0.332v-0.54c-0.008-0.002-0.042-0.023-0.118-0.047l-0.83-0.033c-0.587-0.046-1.235-0.069-1.948-0.069
			c-3.313,0-6.252,0.111-8.733,0.329c-1.122,0.105-2.151,0.159-3.057,0.159l-0.101-0.01l-2.804-0.575
			c-0.546-0.118-1.063-0.475-1.541-1.062l-0.112-0.138v-0.178c0-1.995,0.276-5.436,0.822-10.227l0.059-0.185
			c0.386-0.7,1.121-1.165,2.184-1.38c1.136-0.229,1.858-0.383,2.168-0.464c1.617-0.651,3.033-0.991,4.149-0.991l2.514,0.035
			c1.298,0.023,2.137,0.035,2.519,0.035c0.848,0,1.568-0.024,2.147-0.073v-0.581h-9.531c-0.554,0-1.989,0.168-4.264,0.5L35.8,98.938
			l-0.138-0.384c-0.382-1.059-0.413-1.255-0.413-1.389c0-1.064,0.113-2.377,0.336-3.903c0.24-1.742,0.526-2.971,0.874-3.753
			c0.285-0.601,0.966-1.099,2.087-1.534c0.957-0.385,1.765-0.574,2.462-0.574c0.105,0,0.354,0.016,1.353,0.144
			c0.984,0.109,1.173,0.118,1.208,0.118l3.944-0.638c4.462-0.732,7.771-1.104,9.831-1.104c0.367,0,0.708,0.017,1.018,0.05
			c0.479-0.335,0.889-0.592,1.239-0.774c-1.507-0.004-2.724-0.028-3.622-0.07l-1.047-0.125c-0.523-0.054-0.877-0.083-1.054-0.083
			c0.007,0.003-0.187,0.045-1.104,0.334c-1.094,0.345-1.312,0.385-1.43,0.396C47,85.984,44.25,86.204,43.09,86.309
			c-2.443,0.244-4.05,0.406-4.816,0.487c-0.18,0.013-0.383-0.021-1.15-0.308c-0.531-0.197-0.692-0.239-0.733-0.248
			c0.011,0.01-0.157,0.067-0.505,0.436c-0.593,0.61-0.835,0.765-1.034,0.819c-0.068,0.039-0.323,0.105-1.827,0.191
			c-0.464,0.039-0.805,0.182-1.026,0.435v1.069c1.246,0.771,2.208,1.33,2.861,1.661l0.283,0.144l-0.009,0.317
			C34.984,96.324,34.285,99.056,32.941,99.828z"/>
	</g>
	<g>
		<path d="M78.077,106.639c0,0.244-0.122,1.631-0.366,4.162c-0.209,2.102-0.464,4.388-0.766,6.861
			c-0.023,0.186-0.209,0.278-0.557,0.278c-0.453,0-0.825-0.569-1.115-1.707c-0.221-0.871-0.331-1.643-0.331-2.316
			c0-0.255,0.148-1.172,0.444-2.751c0.296-1.579,0.444-2.49,0.444-2.734c0-0.685-0.186-1.027-0.557-1.027
			c-0.476,0-1.492,0.412-3.047,1.236c-1.347,0.72-2.328,1.306-2.943,1.759c-1.173,0.859-2.502,2.153-3.988,3.883
			c-0.244,0.278-0.72,0.812-1.428,1.602c-0.278,0.29-0.83,0.441-1.654,0.453v-1.167c0-0.546,1.068-1.747,3.205-3.605
			c1.707-1.486,3.494-2.833,5.364-4.04c2.624-1.707,4.574-2.56,5.851-2.56c0.336,0,0.662,0.186,0.975,0.557
			C77.92,105.896,78.077,106.267,78.077,106.639z"/>
		<path d="M76.388,118.44c-0.958,0-1.371-1.189-1.599-2.083c-0.23-0.907-0.347-1.728-0.347-2.439c0-0.199,0.051-0.701,0.453-2.844
			c0.393-2.096,0.435-2.546,0.435-2.642c0-0.44-0.088-0.547-0.089-0.548c-0.146,0.021-0.774,0.135-2.782,1.199
			c-1.32,0.706-2.29,1.285-2.881,1.72c-1.137,0.833-2.451,2.113-3.905,3.806c-0.248,0.283-0.726,0.818-1.436,1.61
			c-0.39,0.406-1.046,0.605-2.019,0.619l-0.507,0.007v-1.674c0-0.517,0.401-1.395,3.376-3.982c1.717-1.495,3.541-2.869,5.42-4.083
			c2.731-1.776,4.734-2.64,6.123-2.64c0.489,0,0.945,0.247,1.357,0.734c0.391,0.463,0.588,0.947,0.588,1.438
			c0,0.098,0,0.395-0.368,4.21c-0.208,2.094-0.466,4.407-0.768,6.874C77.414,117.94,77.257,118.44,76.388,118.44z M75.273,106.905
			c0.318,0,1.057,0.149,1.057,1.527c0,0.192-0.051,0.687-0.453,2.827c-0.379,2.023-0.436,2.535-0.436,2.659
			c0,0.629,0.106,1.367,0.316,2.193c0.319,1.251,0.627,1.33,0.63,1.33c0.032,0,0.058-0.001,0.081-0.002
			c0.292-2.397,0.542-4.647,0.745-6.687c0.316-3.276,0.363-3.983,0.363-4.113c0-0.252-0.115-0.511-0.353-0.792
			c-0.212-0.251-0.412-0.379-0.593-0.379c-1.172,0-3.049,0.834-5.579,2.479c-1.841,1.189-3.626,2.534-5.308,3.998
			c-2.833,2.464-3.023,3.125-3.033,3.232v0.632c0.534-0.062,0.729-0.201,0.793-0.268c0.695-0.775,1.17-1.308,1.413-1.585
			c1.5-1.748,2.871-3.081,4.068-3.958c0.637-0.47,1.62-1.058,3.003-1.797C74.182,107.039,74.913,106.905,75.273,106.905z"/>
	</g>
	<g>
		<path d="M103.251,107.021l-0.557,0.505c-1.219-0.383-2.166-0.575-2.839-0.575c-0.046,0-0.093,0-0.139,0
			c-0.871,0.046-1.509,0.069-1.916,0.069h-1.394c-0.023,0-0.429,0.128-1.219,0.383c-0.5,0.035-1.236,0.163-2.212,0.383
			c-1.556,0.685-2.484,1.893-2.786,3.622c-0.128,0.685-0.191,1.289-0.191,1.811c0,0.14,0.005,0.279,0.017,0.418
			c0.093,1.289,0.14,2.049,0.14,2.281c-0.268,0.07-0.697,0.14-1.289,0.209c-0.325-0.627-0.487-1.062-0.487-1.306
			c0-0.127,0.029-0.458,0.087-0.992c0.035-0.534,0.052-0.894,0.052-1.08c0-0.975,0.43-2.653,1.289-5.033
			c0.29-0.604,0.708-1.097,1.254-1.48c1.185-0.812,3.373-1.219,6.565-1.219c3.204,0.012,5.079,0.436,5.625,1.271V107.021z"/>
		<path d="M88.582,116.666l-0.159-0.307c-0.376-0.726-0.543-1.199-0.543-1.536c0-0.134,0.029-0.483,0.09-1.046
			c0.032-0.497,0.049-0.846,0.049-1.026c0-1.043,0.431-2.745,1.318-5.203c0.346-0.726,0.823-1.289,1.437-1.719
			c1.287-0.883,3.526-1.31,6.853-1.31c3.465,0.013,5.384,0.489,6.043,1.498l0.082,0.125v1.102l-0.934,0.847l-0.273-0.086
			c-1.165-0.366-2.069-0.552-2.689-0.552h-0.139c-0.856,0.046-1.503,0.069-1.916,0.069h-1.33c-0.139,0.041-0.514,0.161-1.128,0.359
			l-0.119,0.023c-0.47,0.032-1.189,0.158-2.136,0.372c-1.314,0.589-2.13,1.652-2.404,3.22c-0.123,0.656-0.184,1.234-0.184,1.725
			c0,0.125,0.005,0.251,0.015,0.376c0.127,1.761,0.142,2.169,0.142,2.323v0.386l-0.374,0.098c-0.294,0.077-0.738,0.149-1.357,0.222
			L88.582,116.666z M97.625,105.519c-3.072,0-5.186,0.381-6.281,1.131c-0.468,0.328-0.834,0.761-1.086,1.285
			c-0.816,2.268-1.239,3.904-1.239,4.816c0,0.192-0.017,0.562-0.053,1.113c-0.057,0.526-0.086,0.839-0.086,0.959
			c0,0.035,0.015,0.218,0.277,0.766c0.183-0.024,0.344-0.048,0.483-0.072c-0.021-0.382-0.062-0.999-0.122-1.842
			c-0.013-0.147-0.019-0.3-0.019-0.454c0-0.552,0.067-1.192,0.2-1.903c0.33-1.891,1.365-3.234,3.076-3.988
			c1.06-0.249,1.792-0.378,2.316-0.42c1.204-0.389,1.213-0.389,1.316-0.389h1.394c0.4,0,1.03-0.023,1.889-0.069l0.166,0
			c0.678,0,1.568,0.168,2.714,0.513l0.182-0.166v-0.338C102.39,106.075,101.238,105.532,97.625,105.519z"/>
	</g>
	<g>
		<path d="M116.236,112.455c-0.14,1.881-0.209,2.972-0.209,3.274c-0.558,0.313-1.057,0.47-1.498,0.47
			c-0.186-0.534-0.278-1.196-0.278-1.985c0-4.388,0.545-6.716,1.637-6.983c0.383,0.174,0.592,0.47,0.627,0.888
			c-0.012-0.15-0.029-0.232-0.052-0.244c0.012,0.128,0.018,0.285,0.018,0.47C116.479,109.17,116.398,110.54,116.236,112.455z
			 M117.873,99.15l0.018,0.07c0,0.453-0.476,1.004-1.428,1.654c-0.278-0.081-0.848-0.558-1.707-1.428
			c0.348-0.836,0.726-1.254,1.132-1.254C116.271,98.192,116.932,98.512,117.873,99.15z"/>
		<path d="M114.529,116.699h-0.355l-0.117-0.336c-0.203-0.584-0.306-1.307-0.306-2.149c0-4.683,0.586-6.991,1.898-7.434
			l-0.723-2.609l1.713,2.997c0.14,0.157,0.243,0.341,0.306,0.548c0.018,0.043,0.031,0.091,0.042,0.149l1.036,3.742l-1.087-1.902
			c-0.04,0.745-0.106,1.671-0.202,2.793c-0.171,2.306-0.207,3.031-0.207,3.232v0.292l-0.255,0.144
			C115.641,116.52,115.055,116.699,114.529,116.699z M115.851,107.792c-0.386,0.28-1.1,1.469-1.1,6.421
			c0,0.55,0.048,1.033,0.143,1.442c0.198-0.044,0.413-0.123,0.643-0.234c0.023-0.509,0.089-1.5,0.201-3.004
			c0.161-1.901,0.242-3.27,0.242-4.073c0-0.154-0.004-0.287-0.013-0.397C115.944,107.897,115.909,107.844,115.851,107.792z
			 M116.549,101.42l-0.227-0.066c-0.269-0.078-0.707-0.324-1.923-1.557l-0.233-0.236l0.128-0.307
			c0.161-0.386,0.65-1.562,1.593-1.562c0.503,0,1.202,0.322,2.266,1.044l0.158,0.107l0.079,0.376c0,0.643-0.523,1.3-1.646,2.067
			L116.549,101.42z M115.354,99.338c0.571,0.564,0.895,0.828,1.07,0.952c0.592-0.433,0.822-0.726,0.912-0.896
			c-0.996-0.647-1.356-0.701-1.448-0.701C115.806,98.692,115.604,98.835,115.354,99.338z"/>
	</g>
	<g>
		<path d="M144.057,113.639c0,0.848-0.285,2.009-0.854,3.483c-0.255,0.65-0.708,1.817-1.358,3.5
			c-0.859,2.426-1.318,3.814-1.375,4.162c-0.093,0.65-0.232,1.631-0.418,2.943l-1.062,6.966l-0.4,0.505h-1.219
			c-0.197-0.14-0.296-0.395-0.296-0.767c0-2.844,0.517-6.112,1.55-9.804c0.058-0.407,0.54-2.136,1.445-5.189
			c0.035-0.128,0.319-0.906,0.854-2.333c0.441-1.161,0.662-1.869,0.662-2.125c0-0.522-0.221-0.784-0.662-0.784
			c-0.313,0-1.991,0.325-5.033,0.976c-1.858,0.395-3.947,0.592-6.27,0.592c-0.662,0-1.329-0.261-2.002-0.784
			c-0.697-0.522-1.045-1.044-1.045-1.567c0-0.406,0.168-0.952,0.505-1.637s0.662-1.115,0.976-1.289
			c0.638-0.372,1.961-0.749,3.97-1.132c1.834-0.349,3.233-0.522,4.197-0.522c0.894,0,1.637,0.238,2.229,0.714
			c-0.059,0.325-0.14,0.812-0.244,1.463c-0.337,0.186-0.818,0.278-1.445,0.278c-0.116,0-0.488-0.11-1.115-0.331
			c-0.626-0.221-0.999-0.331-1.114-0.331c-0.464,0-1.393,0.296-2.786,0.888c-1.417,0.616-2.316,1.103-2.7,1.463
			c0.244,0.546,0.714,0.818,1.411,0.818c0.035,0,0.188-0.009,0.461-0.026c0.273-0.018,0.438-0.026,0.497-0.026
			c0.116,0,1.091-0.162,2.926-0.487l6.008-1.115c1.498-0.267,2.316-0.4,2.456-0.4C143.639,111.741,144.057,112.374,144.057,113.639z
			"/>
		<path d="M138.831,135.699h-1.62l-0.13-0.092c-0.336-0.238-0.507-0.633-0.507-1.175c0-2.876,0.528-6.22,1.568-9.939
			c0.026-0.212,0.22-1.059,1.447-5.197c0.014-0.05,0.058-0.209,0.865-2.367c0.594-1.564,0.629-1.899,0.63-1.95
			c0-0.184-0.038-0.256-0.048-0.266c-0.004-0.003-0.038-0.018-0.113-0.018c-0.13,0.001-0.871,0.097-4.928,0.964
			c-1.884,0.4-4.028,0.603-6.374,0.603c-0.772,0-1.549-0.299-2.309-0.889c-0.819-0.614-1.238-1.276-1.238-1.962
			c0-0.489,0.182-1.097,0.556-1.858c0.387-0.786,0.773-1.279,1.182-1.505c0.686-0.399,2.036-0.789,4.119-1.186
			c1.855-0.353,3.299-0.531,4.291-0.531c1.007,0,1.862,0.277,2.543,0.824l0.231,0.186l-0.053,0.292
			c-0.058,0.323-0.139,0.807-0.243,1.453l-0.039,0.241l-0.214,0.118c-0.416,0.229-0.967,0.34-1.687,0.34
			c-0.132,0-0.34-0.028-1.281-0.359c-0.766-0.27-0.944-0.3-0.972-0.304c-0.199,0.001-0.831,0.111-2.567,0.849
			c-1.176,0.511-1.84,0.868-2.213,1.111c0.146,0.121,0.368,0.21,0.729,0.21c0.039-0.001,0.183-0.009,0.43-0.025
			c0.29-0.019,0.466-0.027,0.528-0.027c0.056-0.005,0.48-0.062,2.838-0.479l6.004-1.114c2.292-0.409,2.458-0.409,2.547-0.409
			c0.655,0,1.754,0.312,1.754,2.398c0,0.918-0.29,2.116-0.887,3.663c-0.256,0.652-0.708,1.818-1.358,3.5
			c-1.104,3.117-1.319,3.884-1.349,4.063l-0.416,2.931l-1.083,7.103L138.831,135.699z M137.606,134.699h0.741l0.168-0.212
			l1.459-9.773c0.042-0.254,0.231-0.959,1.399-4.258c0.656-1.698,1.108-2.865,1.364-3.516c0.543-1.407,0.819-2.519,0.819-3.3
			c0-1.398-0.528-1.398-0.754-1.398c-0.063,0.003-0.437,0.048-2.368,0.393l-6.004,1.114c-2.796,0.496-2.935,0.496-3.017,0.496
			c-0.054,0-0.209,0.009-0.464,0.025c-0.292,0.018-0.456,0.027-0.494,0.027c-1.131,0-1.64-0.606-1.867-1.114l-0.145-0.325
			l0.259-0.244c0.429-0.403,1.359-0.912,2.843-1.557c1.96-0.833,2.643-0.93,2.985-0.93c0.131,0,0.339,0.028,1.28,0.359
			c0.766,0.27,0.944,0.3,0.972,0.303c0.387-0.001,0.721-0.044,0.972-0.128c0.057-0.352,0.106-0.649,0.148-0.892
			c-0.462-0.293-1.016-0.437-1.683-0.437c-0.929,0-2.31,0.173-4.104,0.514c-2.42,0.461-3.409,0.838-3.812,1.073
			c-0.133,0.074-0.399,0.305-0.778,1.077c-0.375,0.762-0.454,1.191-0.454,1.417c0,0.441,0.459,0.878,0.845,1.167
			c0.587,0.455,1.158,0.684,1.703,0.684c2.276,0,4.351-0.195,6.166-0.581c4.613-0.986,4.98-0.986,5.137-0.986
			c0.562,0,1.162,0.337,1.162,1.284c0,0.234-0.083,0.691-0.694,2.303c-0.708,1.892-0.822,2.231-0.839,2.289
			c-1.117,3.767-1.395,4.867-1.432,5.127c-1.03,3.695-1.545,6.948-1.545,9.733C137.574,134.552,137.587,134.64,137.606,134.699z"/>
	</g>
	<g>
		<path d="M170.434,106.221c0,0.488-0.883,1.707-2.648,3.657c-1.555,1.718-2.711,2.856-3.465,3.413
			c-0.383,0.279-1.201,0.882-2.455,1.811c-0.523,0.372-1.324,0.737-2.404,1.097c-1.104,0.36-1.967,0.54-2.594,0.54
			c-1.186,0-2.166-0.76-2.943-2.282c-0.639-1.242-0.958-2.536-0.958-3.883c0-1.114,0.231-2.258,0.696-3.431
			c0.174,0,0.354-0.081,0.541-0.244c0.219,0.128,0.521,0.372,0.904,0.731c-0.115,0.917-0.174,1.718-0.174,2.403
			c0,2.81,0.912,4.214,2.734,4.214c1.764,0,3.883-1.097,6.355-3.291c0.395-0.349,2.252-2.084,5.574-5.207h0.277
			C170.247,105.75,170.434,105.907,170.434,106.221z"/>
		<path d="M156.868,117.239c-1.383,0-2.522-0.859-3.389-2.554c-0.672-1.306-1.013-2.689-1.013-4.111c0-1.174,0.246-2.39,0.731-3.615
			l0.125-0.316h0.34c0.036,0,0.11-0.032,0.212-0.121l0.271-0.236l0.31,0.181c0.257,0.151,0.583,0.412,0.994,0.799l0.186,0.174
			l-0.032,0.252c-0.113,0.897-0.17,1.685-0.17,2.341c0,3.329,1.275,3.714,2.234,3.714c1.631,0,3.657-1.065,6.023-3.165
			c0.39-0.345,2.21-2.044,5.563-5.197l0.145-0.136h0.476c0.644,0,1.059,0.381,1.059,0.97c0,0.457-0.33,1.289-2.777,3.993
			c-1.59,1.756-2.747,2.895-3.539,3.48c-0.385,0.28-1.202,0.883-2.454,1.811c-0.578,0.41-1.407,0.791-2.544,1.169
			C158.452,117.055,157.552,117.239,156.868,117.239z M154.031,107.58c-0.375,1.021-0.565,2.027-0.565,2.995
			c0,1.261,0.304,2.49,0.903,3.655c0.691,1.353,1.508,2.01,2.499,2.01c0.569,0,1.39-0.173,2.438-0.516
			c1.024-0.341,1.789-0.688,2.271-1.029c1.247-0.924,2.066-1.528,2.45-1.808c0.725-0.536,1.865-1.662,3.388-3.344
			c2.163-2.39,2.472-3.112,2.514-3.291c-0.014,0-0.031-0.001-0.053-0.001h-0.079c-3.27,3.073-5.05,4.736-5.441,5.082
			c-2.59,2.299-4.777,3.417-6.687,3.417c-1.476,0-3.234-0.818-3.234-4.714c0-0.633,0.049-1.375,0.146-2.209
			c-0.154-0.139-0.278-0.242-0.379-0.32C154.146,107.535,154.088,107.56,154.031,107.58z"/>
	</g>
	<g>
		<path d="M194.841,115.12c-0.43,0.511-0.986,0.766-1.672,0.766h-6.164c-1.429,0-3.019-0.215-4.771-0.645
			c-2.299-0.557-3.6-1.259-3.901-2.107c-0.337-0.952-0.505-1.863-0.505-2.734c0-1.753,0.755-3.1,2.264-4.041
			c1.277-0.812,2.833-1.219,4.667-1.219c1.579,0,2.833,0.339,3.762,1.019s1.394,1.605,1.394,2.778c0,0.65-1.115,1.364-3.344,2.142
			c-1.846,0.662-3.187,0.993-4.022,0.993c-0.104,0-0.198-0.005-0.279-0.017c0,0.163-0.128,0.36-0.383,0.592
			c0.14,0.232,0.818,0.5,2.037,0.801c1.092,0.279,1.869,0.418,2.334,0.418h5.538c0,0.012,0.696,0.116,2.09,0.313
			C194.325,114.458,194.644,114.771,194.841,115.12z M187.667,108.171c-0.65-0.662-1.695-0.993-3.135-0.993
			c-1.01,0-1.944,0.198-2.804,0.592c-1.114,0.511-1.671,1.202-1.671,2.072c0,0.313,0.104,0.534,0.313,0.662h1.114
			c0.395,0,1.463-0.331,3.204-0.992C186.43,108.85,187.423,108.403,187.667,108.171z"/>
		<path d="M193.169,116.386h-6.164c-1.462,0-3.106-0.222-4.891-0.659c-2.531-0.614-3.883-1.384-4.253-2.425
			c-0.354-1-0.534-1.977-0.534-2.901c0-1.929,0.841-3.431,2.499-4.465c1.35-0.858,3.01-1.294,4.932-1.294
			c1.681,0,3.045,0.375,4.057,1.115c1.061,0.776,1.599,1.846,1.599,3.182c0,0.92-1.135,1.726-3.679,2.614
			c-1.802,0.646-3.123,0.98-4.025,1.017c0.258,0.097,0.673,0.23,1.333,0.394c1.306,0.333,1.925,0.403,2.214,0.403h6.038v0.078
			c0.287,0.043,0.787,0.117,1.66,0.24l0.197,0.072c0.509,0.322,0.888,0.698,1.125,1.117l0.171,0.302l-0.224,0.266
			C194.697,116.068,194.005,116.386,193.169,116.386z M184.758,105.641c-1.729,0-3.209,0.384-4.398,1.141
			c-1.369,0.853-2.032,2.036-2.032,3.619c0,0.811,0.16,1.674,0.477,2.567c0.135,0.379,0.775,1.116,3.548,1.788
			c1.707,0.418,3.272,0.63,4.653,0.63h6.164c0.397,0,0.731-0.106,1.015-0.323c-0.129-0.141-0.289-0.276-0.479-0.404
			c-0.983-0.139-1.565-0.223-1.91-0.303v0.01h-5.538c-0.512,0-1.315-0.142-2.458-0.434c-1.68-0.416-2.151-0.712-2.342-1.028
			l-0.211-0.351l0.303-0.276c0.193-0.175,0.225-0.26,0.225-0.261v-0.577l0.566,0.122c0.061,0.008,0.13,0.012,0.208,0.012
			c0.775,0,2.072-0.324,3.854-0.963c2.979-1.039,3.013-1.646,3.013-1.671c0-1.013-0.389-1.789-1.188-2.374
			C187.388,105.951,186.222,105.641,184.758,105.641z M181.485,111.004h-1.255l-0.12-0.073c-0.252-0.154-0.553-0.467-0.553-1.088
			c0-1.079,0.66-1.929,1.962-2.527c0.922-0.423,1.936-0.638,3.013-0.638c1.571,0,2.746,0.384,3.491,1.142l0.355,0.362l-0.366,0.35
			c-0.216,0.207-0.759,0.54-3.146,1.447C182.476,110.888,181.803,111.004,181.485,111.004z M180.578,110.004h0.907
			c0.15,0,0.747-0.093,3.026-0.959c1.165-0.443,1.85-0.735,2.252-0.925c-0.55-0.293-1.297-0.441-2.231-0.441
			c-0.932,0-1.805,0.184-2.595,0.547c-1.38,0.633-1.38,1.374-1.38,1.618C180.557,109.919,180.566,109.97,180.578,110.004z"/>
	</g>
	<g>
		<path d="M254.646,91.07c0,0.082-0.319,0.47-0.957,1.167c-0.65,0.743-0.993,1.161-1.027,1.254
			c-0.558,1.475-1.086,3.872-1.585,7.192c-0.487,3.181-0.731,5.648-0.731,7.401c0,0.372-0.128,0.72-0.383,1.045
			c-0.012,0.708-0.175,2.2-0.488,4.476c-0.139,0.999-0.209,1.608-0.209,1.829c0,0.081,0.197,0.784,0.593,2.107
			c-0.256,0.081-0.686,0.168-1.289,0.261c-0.627-1.277-0.94-2.183-0.94-2.717c0-0.22,0.104-1.422,0.313-3.604
			c0.209-2.066,0.412-4.493,0.609-7.279h-2.821c-0.197,0-0.986,0.116-2.368,0.348c-1.382,0.232-2.188,0.348-2.421,0.348
			c-0.162,0-0.522,0-1.079,0l-1.08-0.017c-1.126,0-1.985,0.041-2.577,0.122c-0.325,0.047-0.818,0.18-1.48,0.401
			c-0.604,0.209-1.092,0.313-1.463,0.313c-0.349,0-0.65-0.093-0.905-0.279c-0.325,0.209-0.801,0.389-1.428,0.54l-1.48,0.366
			c-0.418,0.372-0.627,0.981-0.627,1.828c0,0.104,0.018,0.447,0.052,1.028c0.047,0.592,0.07,0.935,0.07,1.027
			c0,0.882-0.366,2.427-1.098,4.632c-0.058,0-0.232,0.009-0.522,0.026c-0.29,0.018-0.452,0.026-0.487,0.026
			c-0.186,0-0.36-0.029-0.522-0.087c0.29-1.764,0.436-4.504,0.436-8.219c0-0.104,0.145-0.836,0.436-2.194
			c0.87-4.122,1.584-7.111,2.142-8.969c0.383-0.696,0.911-1.765,1.585-3.204h1.045c0.139,0.546,0.22,0.818,0.243,0.818v-0.07
			c0,0.174-0.232,0.778-0.696,1.812c-0.487,1.126-0.767,1.823-0.836,2.089c-0.801,2.996-1.201,5.021-1.201,6.078
			c0,0.557,0.214,0.835,0.644,0.835c0.534,0,1.335-0.11,2.403-0.331c1.173-0.221,2.015-0.349,2.525-0.383
			c1.812-0.104,3.604-0.157,5.381-0.157c0.244,0,1.068,0.023,2.474,0.07c1.393,0.058,2.211,0.087,2.455,0.087
			c0.349,0,0.894-0.041,1.637-0.122c0.696-0.082,1.236-0.134,1.62-0.157c0.348-0.209,0.638-1.242,0.87-3.1
			c0.313-2.461,0.633-4.231,0.958-5.312c0.639-2.066,1.619-3.471,2.943-4.214h1.027c0.128,0.627,0.203,0.94,0.227,0.94
			C254.64,91.122,254.646,91.105,254.646,91.07z"/>
		<path d="M248.282,118.351l-0.162-0.33c-0.676-1.378-0.991-2.312-0.991-2.937c0-0.152,0.033-0.696,0.315-3.652
			c0.194-1.92,0.386-4.182,0.57-6.731h-2.284c-0.076,0-0.45,0.033-2.285,0.341c-1.893,0.318-2.335,0.355-2.504,0.355l-2.167-0.017
			c-1.091,0-1.935,0.04-2.502,0.117c-0.291,0.042-0.761,0.17-1.39,0.379c-1.164,0.404-1.905,0.446-2.533,0.138
			c-0.342,0.173-0.771,0.32-1.304,0.449l-1.345,0.332c-0.252,0.282-0.38,0.744-0.38,1.375c0,0.102,0.018,0.435,0.051,0.999
			c0.048,0.604,0.071,0.96,0.071,1.057c0,0.944-0.367,2.511-1.123,4.79l-0.113,0.343h-0.361c-0.055,0-0.22,0.009-0.493,0.025
			c-0.307,0.019-0.479,0.027-0.517,0.027c-0.244,0-0.478-0.04-0.692-0.117l-0.391-0.141l0.067-0.41
			c0.284-1.731,0.429-4.469,0.429-8.138c0-0.085,0-0.214,0.446-2.299c0.869-4.113,1.593-7.145,2.152-9.007l0.04-0.097
			c0.375-0.682,0.903-1.75,1.57-3.175l0.135-0.288h1.752l0.096,0.377c0.1,0.39,0.163,0.628,0.198,0.713L232.766,93l-0.067,0.112
			v0.373l-0.117,0.016c-0.095,0.276-0.274,0.724-0.623,1.5c-0.591,1.365-0.766,1.847-0.808,2.011
			c-0.787,2.943-1.186,4.944-1.186,5.952c0,0.257,0.059,0.323,0.059,0.324c0.588,0.007,1.358-0.096,2.387-0.309
			c1.214-0.229,2.059-0.356,2.593-0.393c1.818-0.104,3.638-0.158,5.415-0.158c0.246,0,1.075,0.023,2.49,0.07
			c1.385,0.058,2.196,0.086,2.438,0.086c0.328,0,0.86-0.04,1.582-0.119c0.599-0.07,1.085-0.119,1.457-0.146
			c0.098-0.167,0.352-0.759,0.592-2.676c0.32-2.513,0.639-4.277,0.976-5.394c0.676-2.188,1.744-3.702,3.177-4.506l0.114-0.064h1.566
			l0.082,0.4c0.066,0.328,0.116,0.563,0.151,0.707l0.248,0.147l-0.146,0.276v0.358l-0.237,0.024c-0.138,0.18-0.385,0.472-0.851,0.98
			c-0.786,0.898-0.926,1.099-0.95,1.139c-0.521,1.389-1.045,3.774-1.537,7.044c-0.481,3.145-0.726,5.609-0.726,7.327
			c0,0.431-0.13,0.838-0.388,1.215c-0.03,0.778-0.19,2.213-0.488,4.374c-0.169,1.216-0.204,1.628-0.204,1.76l0,0
			c0.006,0,0.075,0.302,0.572,1.964l0.141,0.471l-0.469,0.148c-0.285,0.09-0.731,0.182-1.364,0.279L248.282,118.351z
			 M245.73,103.701h3.358l-0.038,0.535c-0.197,2.78-0.402,5.234-0.611,7.294c-0.271,2.825-0.311,3.439-0.311,3.554
			c0,0.288,0.132,0.895,0.729,2.164c0.143-0.025,0.266-0.048,0.371-0.069c-0.464-1.566-0.464-1.654-0.464-1.746
			c0-0.167,0.024-0.533,0.214-1.897c0.31-2.247,0.473-3.733,0.483-4.415l0.003-0.168l0.104-0.132
			c0.187-0.237,0.276-0.478,0.276-0.736c0-1.768,0.248-4.284,0.737-7.477c0.502-3.338,1.044-5.792,1.611-7.293
			c0.039-0.107,0.081-0.221,1.119-1.406c0.431-0.472,0.651-0.73,0.763-0.871c-0.023-0.096-0.05-0.213-0.08-0.355h-0.485
			c-1.147,0.692-2.022,1.991-2.601,3.862c-0.314,1.045-0.631,2.805-0.939,5.227c-0.333,2.66-0.729,3.238-1.108,3.466l-0.105,0.063
			l-0.122,0.007c-0.378,0.022-0.908,0.074-1.592,0.154c-0.772,0.084-1.326,0.125-1.695,0.125c-0.246,0-1.071-0.029-2.476-0.087
			c-1.392-0.046-2.211-0.069-2.453-0.069c-1.758,0-3.559,0.052-5.353,0.156c-0.481,0.033-1.312,0.159-2.461,0.375
			c-1.103,0.228-1.921,0.339-2.496,0.339c-0.269,0-1.144-0.096-1.144-1.335c0-1.11,0.398-3.141,1.218-6.207
			c0.048-0.183,0.189-0.609,0.86-2.159c0.412-0.917,0.566-1.332,0.625-1.517c-0.026-0.082-0.059-0.192-0.1-0.344h-0.341
			c-0.599,1.271-1.082,2.245-1.438,2.898c-0.549,1.841-1.261,4.827-2.116,8.878c-0.377,1.758-0.421,2.062-0.426,2.114
			c0.001,3.374-0.123,5.993-0.367,7.782c0.07-0.003,0.208-0.011,0.412-0.023c0.067-0.004,0.13-0.008,0.186-0.011
			c0.641-1.972,0.965-3.367,0.965-4.148c0-0.089-0.023-0.419-0.068-0.988c-0.036-0.607-0.054-0.96-0.054-1.067
			c0-0.992,0.268-1.733,0.795-2.202l0.092-0.082l1.601-0.396c0.571-0.138,1-0.297,1.277-0.475l0.288-0.186l0.277,0.202
			c0.387,0.283,0.939,0.233,1.909-0.104c0.701-0.233,1.214-0.372,1.573-0.423c0.623-0.085,1.488-0.126,2.648-0.126l2.159,0.017
			c0.093,0,0.507-0.033,2.338-0.341C245.154,103.741,245.574,103.701,245.73,103.701z"/>
	</g>
	<g>
		<path d="M267.387,113.936c0,0.348-0.348,0.79-1.045,1.323c-0.685,0.534-1.225,0.801-1.619,0.801c-0.383,0-1.01-0.221-1.881-0.662
			c0.104-0.487,0.319-1.143,0.645-1.968c0.209-0.267,0.586-0.575,1.132-0.923s0.935-0.522,1.167-0.522
			c0.371,0,0.731,0.218,1.079,0.653C267.213,113.073,267.387,113.506,267.387,113.936z"/>
		<path d="M264.723,116.56c-0.474,0-1.143-0.228-2.106-0.716l-0.344-0.174l0.08-0.377c0.111-0.519,0.33-1.188,0.669-2.046
			l0.071-0.125c0.247-0.315,0.658-0.654,1.257-1.036c0.651-0.416,1.094-0.601,1.436-0.601c0.529,0,1.023,0.283,1.47,0.841
			c0.419,0.523,0.632,1.065,0.632,1.61c0,0.525-0.395,1.072-1.241,1.72C265.857,116.272,265.245,116.56,264.723,116.56z
			 M263.425,115.127c0.791,0.372,1.148,0.433,1.298,0.433c0.126,0,0.507-0.068,1.312-0.695c0.843-0.646,0.853-0.926,0.853-0.929
			c0-0.312-0.139-0.643-0.413-0.985c-0.246-0.309-0.479-0.465-0.688-0.465c-0.008,0-0.219,0.011-0.898,0.444
			c-0.551,0.352-0.826,0.601-0.964,0.758C263.702,114.252,263.536,114.734,263.425,115.127z"/>
	</g>
</g>
</svg>
