<?xml version="1.0" encoding="utf-8"?>
<!-- Generator: Adobe Illustrator 16.0.0, SVG Export Plug-In . SVG Version: 6.00 Build 0)  -->
<!DOCTYPE svg PUBLIC "-//W3C//DTD SVG 1.1//EN" "http://www.w3.org/Graphics/SVG/1.1/DTD/svg11.dtd">
<svg version="1.1" id="Capa_1" xmlns="http://www.w3.org/2000/svg" xmlns:xlink="http://www.w3.org/1999/xlink" x="0px" y="0px"
	 width="3995.922px" height="801.188px" viewBox="0 0 3995.922 801.188" enable-background="new 0 0 3995.922 801.188"
	 xml:space="preserve">
<rect fill="#E3F1F2" width="3995.922" height="801.188"/>
<g>
	<path fill="#83B3BD" d="M170.228,54.362c-11.028-11.199-25.759-17.433-41.476-17.554c-32.407-0.292-59.043,25.946-59.29,58.39
		l-0.27,35.158c-0.022,2.881,2.294,5.234,5.176,5.256c0.014,0,0.027,0,0.041,0c2.861,0,5.193-2.309,5.215-5.175l0.27-35.158
		c0.204-26.567,21.881-48.039,48.402-48.039c0.125,0,0.251,0,0.377,0c12.93,0.1,25.048,5.228,34.122,14.443
		c9.073,9.212,14.014,21.407,13.915,34.338l-0.269,35.159c-0.021,2.881,2.296,5.233,5.177,5.255c0.012,0,0.026,0,0.041,0
		c2.861,0,5.192-2.309,5.214-5.175l0.269-35.158C187.263,80.384,181.257,65.561,170.228,54.362z"/>
	<path fill="#83B3BD" d="M147.124,96.472c-0.01,0-0.022,0-0.035,0c-2.503,0-4.544,2.021-4.564,4.53l-0.449,58.492
		c-0.019,2.521,2.009,4.58,4.528,4.6l0.346,0.001c0.002,0,0,0,0.002,0c18.075,0,22.938-11.24,22.984-17.183l0.252-32.899
		c0.004-0.479-0.053-4.809-3.134-9.111C164.335,101.106,158.67,96.561,147.124,96.472z M160.809,146.761
		c-0.054,1.198-0.799,6.576-9.567,7.907l0.374-48.7c8.741,1.462,9.407,6.84,9.444,7.974L160.809,146.761z"/>
	<path fill="#83B3BD" d="M110.486,96.192l-0.343-0.001c-18.078,0-22.941,11.241-22.987,17.185l-0.252,32.901
		c-0.003,0.479,0.054,4.808,3.134,9.108c2.721,3.795,8.385,8.339,19.93,8.428c0.011,0,0.023,0,0.036,0
		c2.504,0,4.544-2.021,4.562-4.529l0.45-58.492c0.009-1.21-0.462-2.375-1.311-3.238C112.854,96.691,111.697,96.202,110.486,96.192z
		 M105.476,154.317c-8.742-1.462-9.408-6.837-9.444-7.971l0.25-32.819c0.056-1.198,0.801-6.578,9.567-7.909L105.476,154.317z"/>
</g>
<g>
	<path fill="#83B3BD" d="M313.895,44.295c-1.948-0.808-4.194-0.362-5.684,1.131l-26.962,26.962h-13.412
		c-2.881,0-5.216,2.335-5.216,5.216v46.299c0,2.881,2.335,5.216,5.216,5.216h13.412l26.962,26.962
		c0.997,0.999,2.332,1.528,3.689,1.528c0.671,0,1.35-0.13,1.995-0.397c1.949-0.807,3.22-2.709,3.22-4.819V49.115
		C317.114,47.004,315.844,45.102,313.895,44.295z M306.683,139.801l-19.585-19.585c-0.978-0.979-2.306-1.528-3.688-1.528h-10.356
		V82.82h10.356c1.383,0,2.71-0.548,3.688-1.527l19.585-19.585V139.801z"/>
	<path fill="#83B3BD" d="M334.752,77.882c-1.926-2.145-5.225-2.32-7.365-0.397c-2.145,1.924-2.322,5.223-0.397,7.366
		c0.582,0.649,14.11,16.084,0,31.808c-1.924,2.144-1.747,5.442,0.397,7.366c0.995,0.894,2.241,1.334,3.482,1.334
		c1.429,0,2.853-0.584,3.883-1.732C350.99,105.535,341.853,85.792,334.752,77.882z"/>
	<path fill="#83B3BD" d="M351.239,63.34c-1.926-2.145-5.223-2.321-7.366-0.397c-2.143,1.924-2.322,5.222-0.397,7.367
		c1.115,1.243,27.013,30.792,0,60.891c-1.925,2.145-1.746,5.442,0.397,7.366c0.997,0.895,2.242,1.335,3.483,1.335
		c1.429,0,2.853-0.585,3.883-1.732C384.433,101.182,351.576,63.715,351.239,63.34z"/>
	<path fill="#83B3BD" d="M384.656,82.452c-5.304-17.723-15.758-29.508-16.202-30.001c-1.926-2.147-5.224-2.322-7.365-0.398
		c-2.144,1.924-2.322,5.223-0.397,7.366c0.093,0.104,9.329,10.514,13.969,26.024c6.117,20.446,1.417,39.505-13.969,56.649
		c-1.924,2.144-1.746,5.442,0.397,7.367c0.996,0.894,2.241,1.334,3.482,1.334c1.429,0,2.853-0.584,3.883-1.732
		C390.85,124.107,389.626,99.065,384.656,82.452z"/>
</g>
<path fill="#83B3BD" d="M569.34,48.202c-2.036-2.036-5.341-2.036-7.376,0l-18.209,18.209V49.396c0-2.11-1.271-4.012-3.22-4.819
	c-1.951-0.808-4.195-0.363-5.686,1.13l-26.964,26.961h-13.411c-2.882,0-5.217,2.336-5.217,5.216v43.022l-19.229,19.229
	c-2.037,2.037-2.037,5.34,0,7.377c1.018,1.019,2.354,1.528,3.688,1.528s2.67-0.509,3.688-1.528l18.11-18.111h12.37l26.963,26.962
	c0.998,0.998,2.333,1.527,3.689,1.527c0.672,0,1.351-0.129,1.996-0.397c1.948-0.807,3.22-2.709,3.22-4.818V81.164L569.34,55.58
	C571.377,53.542,571.377,50.24,569.34,48.202z M499.69,83.101h10.357c1.383,0,2.709-0.549,3.688-1.527l19.587-19.585v14.854
	l-33.632,33.63V83.101L499.69,83.101z M533.322,140.083l-19.587-19.586c-0.979-0.978-2.305-1.527-3.688-1.527h-4.099l27.373-27.373
	V140.083z"/>
<path fill="#83B3BD" d="M749.403,158.994c-0.985,0-1.975-0.28-2.838-0.84l-30.527-19.8l-30.525,19.8
	c-1.82,1.182-4.184,1.113-5.934-0.178c-1.747-1.286-2.514-3.522-1.926-5.614l9.562-33.922l-28.533-24.145
	c-1.617-1.37-2.247-3.583-1.589-5.599c0.657-2.016,2.47-3.433,4.584-3.584l34.22-2.466l15.397-33.722
	c0.848-1.858,2.702-3.05,4.745-3.05c2.042,0,3.896,1.192,4.745,3.05l15.398,33.722l34.219,2.466
	c2.116,0.152,3.928,1.569,4.585,3.584c0.656,2.015,0.03,4.229-1.59,5.599l-28.533,24.145l9.562,33.922
	c0.59,2.092-0.175,4.328-1.926,5.614C751.58,158.652,750.494,158.994,749.403,158.994z M716.038,126.92
	c0.988,0,1.976,0.28,2.84,0.841l21.748,14.107l-6.714-23.83c-0.555-1.966,0.089-4.075,1.65-5.397l21.325-18.045l-24.543-1.771
	c-1.902-0.134-3.577-1.299-4.37-3.036l-11.938-26.143L704.1,89.789c-0.791,1.737-2.468,2.902-4.37,3.036l-24.542,1.771
	l21.328,18.045c1.559,1.322,2.205,3.431,1.65,5.397l-6.716,23.83l21.751-14.107C714.064,127.2,715.049,126.92,716.038,126.92z"/>
<g>
	<path fill="#83B3BD" d="M970.256,101.359c-0.917-6.306-5.604-11.388-12.536-13.59c-3.67-1.167-9.895-2.721-14.958-3.929
		c9.286-13.288,11.112-27.022,7.659-34.885c-2.152-4.899-6.225-7.709-11.174-7.709c-9.562,0-12.058,8.006-13.881,13.851
		c-0.271,0.868-0.55,1.762-0.856,2.672c-1.692,5.037-10.185,14.122-22.581,21.037c-9.28,5.172-18.167,12.249-18.542,12.546
		c-1.236,0.991-1.958,2.491-1.958,4.075v50.249c0,1.678,0.806,3.252,2.167,4.233c7.469,5.379,33.807,9.745,47.038,9.745
		c6.884,0,9.591-1.083,11.033-1.896c5.939-3.359,13.84-22.372,19.619-38.37C967.944,114.343,971.198,107.849,970.256,101.359z
		 M953.995,111.784c-0.917,0.621-1.61,1.521-1.982,2.562c-5.171,14.472-12.577,31.518-15.56,34.349
		c-0.44,0.142-1.981,0.526-5.819,0.526c-12.362,0-31.56-3.686-38.772-6.66V97.989c3.011-2.277,9.069-6.683,15.146-10.072
		c13.524-7.542,24.532-18.322,27.393-26.824c0.328-0.984,0.632-1.951,0.925-2.888c2.035-6.527,2.549-6.527,3.922-6.527
		c0.364,0,0.976,0,1.623,1.474c2.241,5.103,0.245,17.897-11.212,30.368c-1.258,1.373-1.691,3.312-1.133,5.09
		c0.558,1.777,2.019,3.121,3.838,3.529c0.158,0.036,15.819,3.543,22.193,5.573c3.038,0.962,5.049,2.888,5.374,5.147
		C960.344,105.691,958.179,108.944,953.995,111.784z"/>
	<path fill="#83B3BD" d="M863.458,86.351c-4.682,0-8.476,3.794-8.476,8.475v51.291c0,4.681,3.794,8.476,8.476,8.476
		c4.681,0,8.476-3.794,8.476-8.476V94.826C871.934,90.145,868.139,86.351,863.458,86.351z"/>
</g>
<g>
	<path fill="#83B3BD" d="M1143.737,82.985c-1.892,0-3.744,0.77-5.073,2.102c-1.343,1.329-2.1,3.181-2.1,5.071
		c0,1.893,0.757,3.744,2.1,5.073c1.329,1.33,3.182,2.099,5.073,2.099c1.877,0,3.729-0.769,5.071-2.099
		c1.33-1.342,2.101-3.181,2.101-5.073c0-1.89-0.771-3.742-2.101-5.071C1147.466,83.755,1145.614,82.985,1143.737,82.985z"/>
	<path fill="#83B3BD" d="M1158.511,94.292c-1.89,0-3.741,0.769-5.073,2.101c-1.328,1.342-2.098,3.181-2.098,5.071
		c0,1.893,0.77,3.744,2.098,5.073c1.345,1.33,3.185,2.099,5.073,2.099c1.893,0,3.744-0.769,5.073-2.099
		c1.331-1.329,2.1-3.181,2.1-5.073c0-1.89-0.769-3.729-2.1-5.071C1162.254,95.061,1160.402,94.292,1158.511,94.292z"/>
	<path fill="#83B3BD" d="M1109.127,91.902h-4.294v-4.296c0-1.802-1.459-3.261-3.26-3.261c-1.802,0-3.261,1.459-3.261,3.261v4.296
		h-4.293c-1.802,0-3.261,1.459-3.261,3.261c0,1.8,1.459,3.259,3.261,3.259h4.293v4.294c0,1.801,1.459,3.26,3.261,3.26
		c1.8,0,3.26-1.459,3.26-3.26v-4.294h4.294c1.8,0,3.26-1.459,3.26-3.259C1112.388,93.361,1110.928,91.902,1109.127,91.902z"/>
	<path fill="#83B3BD" d="M1178.492,84.483c1.256-4.052,0.763-8.291-1.461-12.167c-2.614-4.556-7.418-8.063-11.422-8.338
		c-0.212-0.015-0.431-0.023-0.657-0.023c-3.636,0-8.646,2.229-11.484,3.66c-8.961-1.487-18.139-2.238-27.307-2.238
		c-12.82,0-22.211,1.464-26.1,2.195c-3.029-1.521-8.476-3.851-12.058-3.594c-4.003,0.275-8.808,3.782-11.422,8.338
		c-2.225,3.876-2.718,8.115-1.461,12.167c-3.29,7.758-14.56,35.614-14.56,53.152c0,3.884,1.411,7.442,3.97,10.017
		c2.551,2.565,6.057,3.979,9.871,3.979c5.707,0,11.511-3.097,16.338-8.721c3.873-4.508,10.516-12.91,13.896-17.215
		c4.491,1.01,12.913,2.519,23.068,2.519c7.507,0,14.661-0.828,21.317-2.462c3.395,4.319,9.997,12.67,13.854,17.158
		c4.829,5.624,10.631,8.721,16.337,8.721c7.891,0,13.84-6.019,13.84-13.996C1193.05,120.097,1181.781,92.241,1178.492,84.483z
		 M1179.21,141.198c-2.579,0-5.647-1.854-8.424-5.086c-5.077-5.911-15.569-19.369-15.675-19.504
		c-1.004-1.288-2.535-2.009-4.115-2.009c-0.494,0-0.992,0.069-1.481,0.214c-6.652,1.972-13.99,2.97-21.812,2.97
		c-13.33,0-23.511-2.942-23.607-2.97c-2.053-0.606-4.275,0.105-5.595,1.795c-0.105,0.135-10.597,13.593-15.676,19.504
		c-2.774,3.232-5.846,5.086-8.424,5.086c-1.032,0-1.889-0.311-2.474-0.901c-0.61-0.617-0.935-1.536-0.935-2.662
		c0-17.893,14.391-50.618,14.536-50.946c0.627-1.417,0.591-3.04-0.096-4.427c-0.697-1.411-0.737-2.72-0.124-4.124
		c0.891-2.03,2.749-3.398,3.542-3.737c1.377,0.161,5.019,1.635,7.925,3.225c1.121,0.616,2.435,0.795,3.687,0.507
		c0.1-0.023,10.275-2.326,25.695-2.326c9.165,0,18.334,0.8,27.255,2.382c1.175,0.207,2.377,0.007,3.419-0.563
		c2.876-1.576,6.627-3.092,7.909-3.232c0.785,0.328,2.662,1.701,3.558,3.744c0.615,1.404,0.576,2.712-0.124,4.124
		c-0.686,1.388-0.722,3.01-0.094,4.427c0.145,0.328,14.536,33.031,14.536,50.946C1182.619,139.866,1181.344,141.198,1179.21,141.198
		z"/>
</g>
<path fill="#83B3BD" d="M328.427,344.978c-28.345,0-51.405-23.061-51.405-51.406c0-28.344,23.06-51.404,51.405-51.404
	c28.344,0,51.404,23.06,51.404,51.404C379.831,321.917,356.771,344.978,328.427,344.978z M328.427,253.904
	c-21.874,0-39.668,17.795-39.668,39.668c0,21.874,17.794,39.67,39.668,39.67c21.873,0,39.667-17.796,39.667-39.67
	C368.094,271.699,350.3,253.904,328.427,253.904z"/>
<g>
	<path fill="#83B3BD" d="M109.284,242.273c-4.321,0-7.824,3.503-7.824,7.825v89.196c0,4.321,3.503,7.824,7.824,7.824
		c4.32,0,7.824-3.503,7.824-7.824v-89.196C117.107,245.777,113.604,242.273,109.284,242.273z"/>
	<path fill="#83B3BD" d="M156.053,242.273c-4.32,0-7.825,3.503-7.825,7.825v89.196c0,4.321,3.504,7.824,7.825,7.824
		c4.321,0,7.824-3.503,7.824-7.824v-89.196C163.877,245.777,160.374,242.273,156.053,242.273z"/>
</g>
<g>
	<path fill="#83B3BD" d="M709.338,314.827l17.606,0.136c0.012,0,0.059,0,0.071,0c6.295,0,12.52-6.166,12.566-12.447l0.483-63.169
		c0.047-6.211-6.234-12.591-12.447-12.64l-17.676-0.134c-6.294,0-12.52,6.166-12.565,12.447l-0.484,63.167
		c-0.022,2.985,1.383,6.138,3.856,8.651C703.224,313.35,706.354,314.804,709.338,314.827z M707.805,239.177
		c0.127-0.717,1.491-2.06,2.133-2.172l17.521,0.129c0.718,0.127,2.062,1.492,2.175,2.132l-0.479,63.09
		c-0.127,0.71-1.462,2.031-2.188,2.174l-17.471-0.13c-0.716-0.128-2.059-1.491-2.172-2.132L707.805,239.177z"/>
	<path fill="#83B3BD" d="M745.537,349.282l-23.095-0.177l0.1-12.883c0.019-2.521-2.008-4.579-4.53-4.598c-0.01,0-0.022,0-0.035,0
		c-2.504,0-4.545,2.02-4.562,4.528l-0.099,12.882l-23.094-0.177c-0.012,0-0.022,0-0.036,0c-2.503,0-4.543,2.021-4.562,4.528
		c-0.021,2.521,2.009,4.579,4.529,4.6l27.657,0.212l0,0l0,0l27.658,0.212c0.013,0,0.024,0,0.036,0c2.503,0,4.544-2.021,4.563-4.528
		C750.085,351.361,748.058,349.302,745.537,349.282z"/>
	<path fill="#83B3BD" d="M749.769,268.097c-0.012,0-0.022,0-0.035,0c-2.503,0-4.544,2.02-4.562,4.529l-0.298,38.851
		c-0.018,2.251-0.911,4.362-2.515,5.941c-1.604,1.58-3.722,2.432-5.979,2.423l-36.547-0.278c-2.251-0.018-4.362-0.911-5.942-2.516
		c-1.579-1.604-2.438-3.728-2.422-5.979l0.297-38.852c0.02-2.521-2.009-4.58-4.529-4.6c-0.012,0-0.023,0-0.035,0
		c-2.504,0-4.544,2.02-4.564,4.53l-0.296,38.85c-0.037,4.688,1.756,9.113,5.046,12.455c3.291,3.342,7.686,5.202,12.375,5.239
		l36.546,0.279c0.047,0,0.094,0,0.141,0c4.637,0,9.006-1.79,12.313-5.048c3.342-3.291,5.202-7.686,5.238-12.375l0.297-38.851
		C754.317,270.175,752.29,268.117,749.769,268.097z"/>
</g>
<g>
	<path fill="#83B3BD" d="M956.138,246.403c-11.027-11.2-25.758-17.433-41.475-17.554c-32.408-0.292-59.043,25.946-59.291,58.391
		l-0.271,35.157c-0.021,2.881,2.295,5.233,5.178,5.256c0.012,0,0.025,0,0.04,0c2.861,0,5.192-2.31,5.215-5.175l0.27-35.159
		c0.203-26.567,21.881-48.039,48.402-48.039c0.125,0,0.25,0,0.377,0.001c12.929,0.099,25.048,5.228,34.121,14.442
		c9.073,9.212,14.015,21.407,13.915,34.338l-0.269,35.158c-0.021,2.881,2.296,5.234,5.177,5.257c0.013,0,0.026,0,0.041,0
		c2.861,0,5.193-2.31,5.215-5.176l0.269-35.158C973.174,272.425,967.167,257.603,956.138,246.403z"/>
	<path fill="#83B3BD" d="M933.035,288.514c-0.011,0-0.023,0-0.036,0c-2.504,0-4.543,2.02-4.563,4.529l-0.448,58.492
		c-0.021,2.521,2.008,4.58,4.527,4.6h0.346c0.001,0,0,0,0.001,0c18.075,0,22.938-11.238,22.984-17.182l0.252-32.899
		c0.004-0.479-0.054-4.809-3.134-9.11C950.246,293.147,944.581,288.602,933.035,288.514z M946.719,338.801
		c-0.054,1.199-0.799,6.577-9.566,7.908l0.374-48.7c8.74,1.462,9.406,6.839,9.444,7.974L946.719,338.801z"/>
	<path fill="#83B3BD" d="M896.396,288.234l-0.343-0.002c-18.079,0-22.941,11.241-22.986,17.186l-0.253,32.9
		c-0.004,0.479,0.054,4.808,3.134,9.107c2.72,3.795,8.385,8.339,19.93,8.428c0.012,0,0.023,0,0.035,0
		c2.504,0,4.544-2.02,4.562-4.528l0.45-58.492c0.009-1.21-0.461-2.375-1.311-3.238C898.765,288.733,897.607,288.243,896.396,288.234
		z M891.386,346.359c-8.741-1.463-9.408-6.837-9.443-7.974l0.25-32.817c0.055-1.199,0.802-6.579,9.567-7.91L891.386,346.359z"/>
</g>
<g>
	<path fill="#83B3BD" d="M1099.804,236.337c-1.948-0.809-4.192-0.363-5.684,1.13l-26.962,26.962h-13.413
		c-2.881,0-5.216,2.336-5.216,5.216v46.299c0,2.881,2.335,5.216,5.216,5.216h13.413l26.962,26.962
		c0.998,0.999,2.332,1.528,3.688,1.528c0.672,0,1.351-0.13,1.995-0.396c1.95-0.808,3.222-2.71,3.222-4.818V241.155
		C1103.025,239.046,1101.754,237.143,1099.804,236.337z M1092.592,331.842l-19.584-19.585c-0.978-0.979-2.305-1.526-3.688-1.526
		h-10.357v-35.869h10.357c1.384,0,2.71-0.549,3.688-1.528l19.584-19.585V331.842z"/>
	<path fill="#83B3BD" d="M1120.662,269.923c-1.926-2.144-5.225-2.321-7.366-0.398c-2.144,1.924-2.321,5.223-0.396,7.366
		c0.582,0.649,14.111,16.084,0,31.807c-1.925,2.144-1.746,5.441,0.396,7.367c0.996,0.894,2.241,1.333,3.483,1.333
		c1.429,0,2.853-0.584,3.882-1.731C1136.9,297.576,1127.763,277.833,1120.662,269.923z"/>
	<path fill="#83B3BD" d="M1137.15,255.381c-1.927-2.144-5.225-2.321-7.366-0.397c-2.145,1.924-2.321,5.222-0.397,7.367
		c1.115,1.243,27.014,30.792,0,60.891c-1.924,2.145-1.746,5.441,0.397,7.366c0.996,0.895,2.241,1.334,3.483,1.334
		c1.428,0,2.853-0.584,3.882-1.731C1170.345,293.223,1137.486,255.756,1137.15,255.381z"/>
	<path fill="#83B3BD" d="M1170.566,274.493c-5.303-17.723-15.759-29.508-16.201-30.001c-1.926-2.147-5.226-2.322-7.366-0.398
		c-2.143,1.925-2.321,5.222-0.397,7.366c0.094,0.104,9.33,10.515,13.97,26.024c6.118,20.446,1.417,39.505-13.97,56.649
		c-1.924,2.145-1.745,5.442,0.397,7.367c0.996,0.894,2.241,1.334,3.483,1.334c1.429,0,2.853-0.584,3.883-1.732
		C1176.76,316.149,1175.537,291.107,1170.566,274.493z"/>
</g>
<path fill="#83B3BD" d="M1355.25,240.243c-2.036-2.036-5.341-2.036-7.376,0l-18.209,18.209v-17.015c0-2.11-1.271-4.012-3.219-4.819
	c-1.951-0.808-4.195-0.363-5.686,1.13l-26.963,26.962h-13.413c-2.881,0-5.215,2.335-5.215,5.215v43.022l-19.229,19.229
	c-2.037,2.037-2.037,5.34,0,7.377c1.018,1.019,2.354,1.527,3.688,1.527c1.333,0,2.669-0.509,3.688-1.527l18.11-18.111h12.371
	l26.963,26.962c0.997,0.998,2.332,1.526,3.689,1.526c0.672,0,1.35-0.129,1.996-0.396c1.947-0.809,3.219-2.709,3.219-4.819v-71.511
	l25.585-25.585C1357.288,245.583,1357.288,242.281,1355.25,240.243z M1285.602,275.143h10.357c1.383,0,2.71-0.55,3.688-1.528
	l19.586-19.585v14.855l-33.631,33.63L1285.602,275.143L1285.602,275.143z M1319.232,332.124l-19.586-19.585
	c-0.979-0.979-2.306-1.527-3.688-1.527h-4.099l27.373-27.374V332.124z"/>
<path fill="#83B3BD" d="M1535.312,351.035c-0.985,0-1.974-0.279-2.838-0.839l-30.527-19.8l-30.524,19.8
	c-1.822,1.181-4.185,1.111-5.934-0.18c-1.748-1.285-2.516-3.521-1.927-5.613l9.562-33.921l-28.534-24.146
	c-1.618-1.37-2.246-3.583-1.589-5.598c0.658-2.016,2.47-3.434,4.584-3.585l34.221-2.465l15.396-33.723
	c0.849-1.858,2.703-3.05,4.745-3.05c2.043,0,3.896,1.192,4.746,3.05l15.397,33.723l34.219,2.465
	c2.117,0.152,3.927,1.569,4.584,3.585c0.657,2.014,0.03,4.228-1.59,5.598l-28.533,24.146l9.562,33.921
	c0.591,2.092-0.175,4.328-1.926,5.613C1537.49,350.693,1536.404,351.035,1535.312,351.035z M1501.948,318.961
	c0.989,0,1.977,0.28,2.84,0.841l21.749,14.107l-6.713-23.829c-0.557-1.966,0.088-4.075,1.648-5.397l21.326-18.045l-24.542-1.77
	c-1.902-0.135-3.579-1.3-4.371-3.036l-11.938-26.144l-11.938,26.144c-0.792,1.736-2.468,2.901-4.37,3.036l-24.543,1.77
	l21.328,18.045c1.56,1.322,2.206,3.431,1.65,5.397l-6.716,23.829l21.751-14.107C1499.974,319.241,1500.96,318.961,1501.948,318.961z
	"/>
<g>
	<path fill="#83B3BD" d="M1756.167,293.4c-0.917-6.306-5.603-11.388-12.537-13.589c-3.67-1.168-9.894-2.722-14.958-3.93
		c9.286-13.288,11.112-27.022,7.659-34.885c-2.152-4.899-6.225-7.709-11.174-7.709c-9.562,0-12.058,8.006-13.88,13.852
		c-0.271,0.867-0.551,1.761-0.856,2.672c-1.693,5.036-10.186,14.122-22.582,21.036c-9.28,5.173-18.167,12.249-18.541,12.547
		c-1.237,0.991-1.959,2.49-1.959,4.075v50.249c0,1.679,0.806,3.252,2.167,4.233c7.469,5.379,33.807,9.744,47.038,9.744
		c6.884,0,9.592-1.082,11.033-1.895c5.939-3.359,13.84-22.373,19.619-38.37C1753.854,306.385,1757.108,299.89,1756.167,293.4z
		 M1739.905,303.825c-0.917,0.622-1.61,1.521-1.982,2.562c-5.171,14.473-12.577,31.52-15.559,34.35
		c-0.441,0.143-1.982,0.525-5.82,0.525c-12.363,0-31.56-3.685-38.771-6.66V290.03c3.01-2.276,9.068-6.683,15.146-10.071
		c13.524-7.543,24.532-18.323,27.393-26.825c0.328-0.984,0.632-1.951,0.925-2.888c2.034-6.527,2.55-6.527,3.922-6.527
		c0.364,0,0.977,0,1.623,1.474c2.241,5.103,0.245,17.897-11.211,30.369c-1.259,1.373-1.691,3.312-1.135,5.09
		c0.56,1.777,2.021,3.122,3.839,3.529c0.157,0.035,15.819,3.542,22.193,5.572c3.039,0.962,5.048,2.888,5.374,5.148
		C1746.254,297.732,1744.088,300.985,1739.905,303.825z"/>
	<path fill="#83B3BD" d="M1649.368,278.392c-4.681,0-8.476,3.794-8.476,8.475v51.291c0,4.682,3.793,8.476,8.476,8.476
		c4.682,0,8.476-3.794,8.476-8.476v-51.291C1657.844,282.186,1654.049,278.392,1649.368,278.392z"/>
</g>
<g>
	<path fill="#83B3BD" d="M1929.646,275.027c-1.891,0-3.742,0.769-5.071,2.101c-1.345,1.329-2.102,3.181-2.102,5.071
		c0,1.893,0.757,3.744,2.102,5.073c1.329,1.33,3.181,2.099,5.071,2.099c1.877,0,3.73-0.769,5.072-2.099
		c1.331-1.342,2.101-3.181,2.101-5.073c0-1.89-0.77-3.742-2.101-5.071C1933.377,275.796,1931.524,275.027,1929.646,275.027z"/>
	<path fill="#83B3BD" d="M1944.422,286.333c-1.891,0-3.743,0.769-5.073,2.101c-1.329,1.342-2.099,3.181-2.099,5.072
		c0,1.892,0.77,3.743,2.099,5.073c1.344,1.329,3.184,2.099,5.073,2.099c1.893,0,3.743-0.77,5.072-2.099
		c1.331-1.33,2.1-3.182,2.1-5.073c0-1.891-0.769-3.729-2.1-5.072C1948.165,287.102,1946.312,286.333,1944.422,286.333z"/>
	<path fill="#83B3BD" d="M1895.038,283.943h-4.294v-4.296c0-1.802-1.458-3.261-3.26-3.261s-3.261,1.459-3.261,3.261v4.296h-4.294
		c-1.801,0-3.26,1.459-3.26,3.26c0,1.801,1.459,3.26,3.26,3.26h4.294v4.294c0,1.801,1.459,3.261,3.261,3.261
		c1.801,0,3.26-1.46,3.26-3.261v-4.294h4.294c1.8,0,3.26-1.459,3.26-3.26C1898.298,285.402,1896.838,283.943,1895.038,283.943z"/>
	<path fill="#83B3BD" d="M1964.402,276.524c1.256-4.052,0.764-8.29-1.461-12.166c-2.614-4.557-7.418-8.064-11.423-8.34
		c-0.211-0.015-0.431-0.022-0.657-0.022c-3.636,0-8.646,2.229-11.484,3.66c-8.961-1.487-18.139-2.238-27.306-2.238
		c-12.82,0-22.212,1.464-26.1,2.195c-3.03-1.521-8.477-3.852-12.059-3.595c-4.003,0.276-8.808,3.783-11.421,8.34
		c-2.226,3.876-2.719,8.114-1.462,12.166c-3.289,7.758-14.559,35.614-14.559,53.153c0,3.884,1.409,7.442,3.968,10.017
		c2.552,2.564,6.058,3.979,9.872,3.979c5.707,0,11.51-3.097,16.337-8.721c3.872-4.508,10.518-12.91,13.896-17.214
		c4.492,1.008,12.914,2.519,23.068,2.519c7.507,0,14.66-0.829,21.317-2.463c3.395,4.32,9.997,12.671,13.854,17.159
		c4.829,5.625,10.631,8.721,16.336,8.721c7.892,0,13.841-6.019,13.841-13.995C1978.961,312.138,1967.692,284.282,1964.402,276.524z
		 M1965.12,333.239c-2.578,0-5.647-1.854-8.424-5.085c-5.077-5.912-15.569-19.37-15.675-19.504
		c-1.006-1.289-2.534-2.011-4.115-2.011c-0.494,0-0.992,0.069-1.481,0.214c-6.652,1.973-13.991,2.971-21.812,2.971
		c-13.33,0-23.511-2.942-23.606-2.971c-2.053-0.605-4.275,0.105-5.596,1.797c-0.105,0.135-10.597,13.592-15.676,19.504
		c-2.774,3.231-5.846,5.085-8.423,5.085c-1.031,0-1.888-0.312-2.475-0.901c-0.61-0.616-0.935-1.536-0.935-2.661
		c0-17.894,14.391-50.619,14.536-50.947c0.627-1.416,0.592-3.039-0.095-4.427c-0.698-1.411-0.738-2.72-0.124-4.124
		c0.891-2.03,2.748-3.398,3.542-3.736c1.377,0.16,5.019,1.636,7.924,3.224c1.121,0.617,2.435,0.795,3.687,0.507
		c0.101-0.023,10.276-2.325,25.696-2.325c9.164,0,18.333,0.799,27.255,2.381c1.175,0.206,2.377,0.007,3.419-0.563
		c2.875-1.576,6.626-3.091,7.907-3.232c0.786,0.329,2.663,1.701,3.559,3.744c0.615,1.404,0.576,2.712-0.124,4.124
		c-0.688,1.389-0.723,3.011-0.094,4.427c0.145,0.328,14.535,33.031,14.535,50.947
		C1968.529,331.908,1967.255,333.239,1965.12,333.239z"/>
</g>
<g>
	<path fill="#83B3BD" d="M514.791,297.904c16.617,0,30.136-13.519,30.136-30.136c0-16.616-13.519-30.135-30.136-30.135
		c-16.618,0-30.137,13.519-30.137,30.135C484.654,284.385,498.173,297.904,514.791,297.904z M514.791,248.065
		c10.865,0,19.704,8.838,19.704,19.703c0,10.866-8.839,19.703-19.704,19.703c-10.866,0-19.705-8.836-19.705-19.703
		C495.086,256.903,503.925,248.065,514.791,248.065z"/>
	<path fill="#83B3BD" d="M528.596,299.024c-1.708-0.544-3.579-0.17-4.946,0.989l-8.858,7.496l-8.857-7.496
		c-1.37-1.159-3.242-1.533-4.946-0.989c-8.694,2.758-37.062,12.946-37.062,28.164c0,2.882,2.336,5.217,5.216,5.217h91.304
		c2.88,0,5.216-2.335,5.216-5.217C565.658,311.97,537.29,301.782,528.596,299.024z M477.956,321.972
		c4.958-4.193,14.324-8.896,23.479-12.101l9.986,8.451c1.946,1.646,4.794,1.646,6.738,0l9.99-8.451
		c9.153,3.205,18.518,7.906,23.479,12.101H477.956z"/>
	<path fill="#83B3BD" d="M577.499,298.683c-1.932-0.958-4.278-0.168-5.239,1.766c-0.961,1.932-0.171,4.281,1.762,5.244
		c3.19,1.589,8.885,5.26,11.657,8.986h-13.904c-2.162,0-3.913,1.75-3.913,3.912c0,2.16,1.751,3.913,3.913,3.913h19.423
		c2.161,0,3.912-1.753,3.912-3.913C595.109,307.722,579.301,299.577,577.499,298.683z"/>
	<path fill="#83B3BD" d="M558.108,292.01c-3.201,0-6.209-1.246-8.474-3.51c-1.527-1.527-4.005-1.527-5.534-0.002
		c-1.527,1.529-1.527,4.007,0,5.535c3.742,3.741,8.716,5.801,14.008,5.801c10.925,0,19.811-8.886,19.811-19.812
		c0-10.921-8.886-19.808-19.811-19.808c-2.669,0-5.263,0.524-7.708,1.56c-1.992,0.84-2.924,3.134-2.083,5.124
		c0.841,1.992,3.14,2.925,5.126,2.083c1.478-0.624,3.048-0.942,4.664-0.942c6.61,0,11.986,5.376,11.986,11.983
		C570.095,286.633,564.718,292.01,558.108,292.01z"/>
</g>
<g>
	<path fill="#83B3BD" d="M122.354,515l17.605,0.133c0.013,0,0.06,0,0.073,0c6.294,0,12.519-6.164,12.566-12.446l0.485-63.17
		c0.046-6.21-6.236-12.588-12.45-12.637l-17.675-0.135c-6.295,0-12.519,6.166-12.565,12.446l-0.484,63.167
		c-0.023,2.983,1.381,6.139,3.855,8.649C116.238,513.523,119.369,514.976,122.354,515z M120.819,439.35
		c0.127-0.717,1.491-2.062,2.132-2.172l17.523,0.13c0.718,0.127,2.062,1.492,2.175,2.132l-0.479,63.09
		c-0.126,0.709-1.463,2.03-2.188,2.174l-17.47-0.132c-0.716-0.127-2.059-1.49-2.171-2.131L120.819,439.35z"/>
	<path fill="#83B3BD" d="M158.552,549.456l-23.095-0.178l0.1-12.882c0.019-2.521-2.008-4.578-4.529-4.601c-0.013,0-0.023,0-0.036,0
		c-2.504,0-4.543,2.022-4.563,4.529l-0.099,12.883l-23.093-0.178c-0.011,0-0.024,0-0.036,0c-2.504,0-4.544,2.021-4.563,4.528
		c-0.02,2.521,2.008,4.578,4.529,4.601l27.658,0.212l0,0l0,0l27.658,0.211c0.012,0,0.023,0,0.036,0c2.504,0,4.543-2.021,4.562-4.528
		C163.101,551.533,161.073,549.475,158.552,549.456z"/>
	<path fill="#83B3BD" d="M162.784,468.271c-0.011,0-0.023,0-0.036,0c-2.504,0-4.544,2.02-4.563,4.526l-0.298,38.853
		c-0.017,2.252-0.91,4.36-2.515,5.941c-1.605,1.58-3.721,2.435-5.979,2.422l-36.546-0.277c-2.252-0.019-4.363-0.912-5.943-2.518
		c-1.579-1.604-2.439-3.728-2.422-5.979l0.297-38.852c0.019-2.521-2.009-4.58-4.53-4.598c-0.011,0-0.022,0-0.035,0
		c-2.504,0-4.544,2.021-4.563,4.529l-0.296,38.85c-0.037,4.69,1.756,9.112,5.047,12.455c3.29,3.342,7.685,5.2,12.375,5.238
		l36.547,0.278c0.046,0,0.093,0,0.139,0c4.638,0,9.007-1.788,12.315-5.048c3.341-3.291,5.202-7.686,5.237-12.374l0.298-38.853
		C167.332,470.349,165.305,468.289,162.784,468.271z"/>
</g>
<g>
	<path fill="#83B3BD" d="M369.153,446.575c-11.028-11.198-25.759-17.433-41.476-17.554c-32.407-0.293-59.043,25.945-59.291,58.392
		l-0.27,35.157c-0.021,2.881,2.295,5.234,5.177,5.256c0.013,0,0.026,0,0.041,0c2.861,0,5.194-2.308,5.215-5.175l0.27-35.158
		c0.204-26.567,21.88-48.04,48.402-48.04c0.125,0,0.251,0,0.377,0.002c12.93,0.101,25.047,5.228,34.122,14.441
		c9.073,9.213,14.014,21.407,13.915,34.338l-0.268,35.158c-0.022,2.883,2.295,5.233,5.176,5.257c0.012,0,0.027,0,0.041,0
		c2.861,0,5.193-2.31,5.215-5.178l0.269-35.156C386.189,472.597,380.182,457.775,369.153,446.575z"/>
	<path fill="#83B3BD" d="M346.05,488.688c-0.011,0-0.023,0-0.036,0c-2.504,0-4.544,2.02-4.562,4.528l-0.45,58.492
		c-0.02,2.521,2.008,4.58,4.529,4.6h0.344c0.001,0,0,0,0.001,0c18.076,0,22.939-11.238,22.985-17.182l0.252-32.9
		c0.004-0.479-0.053-4.809-3.133-9.108C363.262,493.319,357.596,488.775,346.05,488.688z M359.734,538.974
		c-0.054,1.2-0.8,6.576-9.567,7.908l0.375-48.7c8.742,1.461,9.408,6.84,9.444,7.975L359.734,538.974z"/>
	<path fill="#83B3BD" d="M309.411,488.408l-0.342-0.003c-18.079,0-22.942,11.242-22.988,17.185l-0.252,32.9
		c-0.003,0.479,0.053,4.809,3.134,9.108c2.72,3.794,8.385,8.339,19.93,8.427c0.011,0,0.023,0,0.036,0
		c2.504,0,4.544-2.02,4.564-4.527l0.449-58.492c0.009-1.211-0.462-2.375-1.312-3.238
		C311.779,488.905,310.622,488.416,309.411,488.408z M304.401,546.531c-8.741-1.462-9.407-6.837-9.444-7.973l0.25-32.816
		c0.055-1.198,0.801-6.578,9.569-7.909L304.401,546.531z"/>
</g>
<g>
	<path fill="#83B3BD" d="M512.819,436.51c-1.947-0.81-4.193-0.362-5.684,1.131l-26.962,26.963h-13.412
		c-2.88,0-5.217,2.335-5.217,5.216v46.299c0,2.881,2.336,5.217,5.217,5.217h13.412l26.962,26.962
		c0.998,0.998,2.332,1.528,3.689,1.528c0.671,0,1.35-0.13,1.994-0.398c1.949-0.805,3.221-2.709,3.221-4.818V441.329
		C516.04,439.22,514.769,437.316,512.819,436.51z M505.607,532.016l-19.585-19.586c-0.979-0.979-2.306-1.527-3.688-1.527h-10.357
		v-35.866h10.357c1.383,0,2.71-0.55,3.688-1.528l19.585-19.587V532.016z"/>
	<path fill="#83B3BD" d="M533.677,470.096c-1.925-2.144-5.225-2.32-7.366-0.396c-2.144,1.925-2.321,5.222-0.396,7.366
		c0.582,0.649,14.111,16.083,0,31.807c-1.925,2.145-1.746,5.442,0.396,7.366c0.996,0.895,2.241,1.335,3.483,1.335
		c1.428,0,2.853-0.584,3.882-1.733C549.916,497.75,540.778,478.007,533.677,470.096z"/>
	<path fill="#83B3BD" d="M550.165,455.554c-1.926-2.145-5.224-2.32-7.366-0.397c-2.143,1.925-2.321,5.224-0.396,7.365
		c1.114,1.242,27.013,30.793,0,60.893c-1.925,2.145-1.746,5.44,0.396,7.366c0.997,0.895,2.241,1.335,3.483,1.335
		c1.429,0,2.853-0.585,3.883-1.731C583.359,493.396,550.501,455.928,550.165,455.554z"/>
	<path fill="#83B3BD" d="M583.581,474.667c-5.302-17.724-15.758-29.509-16.201-30.002c-1.925-2.146-5.225-2.321-7.366-0.398
		c-2.144,1.926-2.321,5.225-0.396,7.366c0.093,0.104,9.33,10.517,13.968,26.024c6.119,20.446,1.418,39.504-13.968,56.647
		c-1.924,2.146-1.746,5.442,0.396,7.366c0.996,0.894,2.241,1.335,3.483,1.335c1.429,0,2.853-0.584,3.883-1.732
		C589.775,516.321,588.551,491.281,583.581,474.667z"/>
</g>
<path fill="#83B3BD" d="M768.266,440.415c-2.034-2.035-5.341-2.035-7.376,0l-18.209,18.211V441.61c0-2.108-1.271-4.014-3.219-4.82
	c-1.951-0.807-4.195-0.361-5.685,1.132l-26.963,26.961H693.4c-2.881,0-5.217,2.337-5.217,5.218v43.021l-19.229,19.229
	c-2.037,2.037-2.037,5.34,0,7.377c1.018,1.02,2.353,1.527,3.688,1.527s2.67-0.509,3.688-1.527l18.112-18.111h12.369l26.964,26.964
	c0.997,0.998,2.332,1.526,3.688,1.526c0.672,0,1.351-0.13,1.996-0.396c1.949-0.809,3.219-2.711,3.219-4.819v-71.511l25.585-25.587
	C770.303,445.755,770.303,442.454,768.266,440.415z M698.616,475.315h10.356c1.384,0,2.71-0.55,3.688-1.528l19.586-19.584v14.854
	l-33.631,33.632V475.315z M732.248,532.297l-19.586-19.584c-0.979-0.979-2.305-1.53-3.688-1.53h-4.099l27.373-27.373V532.297z"/>
<path fill="#83B3BD" d="M948.329,551.208c-0.986,0-1.974-0.28-2.837-0.841l-30.528-19.801l-30.523,19.801
	c-1.822,1.182-4.186,1.113-5.936-0.18c-1.747-1.285-2.513-3.521-1.925-5.611l9.561-33.924l-28.533-24.145
	c-1.617-1.371-2.246-3.584-1.59-5.6c0.658-2.017,2.471-3.435,4.586-3.585l34.221-2.465l15.396-33.724
	c0.849-1.857,2.702-3.051,4.745-3.051s3.897,1.192,4.745,3.051l15.399,33.724l34.218,2.465c2.116,0.15,3.928,1.568,4.584,3.585
	c0.656,2.016,0.031,4.229-1.59,5.6l-28.533,24.145l9.561,33.924c0.591,2.091-0.175,4.326-1.925,5.611
	C950.506,550.867,949.418,551.208,948.329,551.208z M914.963,519.134c0.989,0,1.978,0.28,2.84,0.841l21.749,14.107l-6.714-23.829
	c-0.556-1.966,0.089-4.074,1.651-5.397l21.325-18.045l-24.543-1.771c-1.902-0.135-3.578-1.299-4.37-3.035l-11.938-26.144
	l-11.937,26.144c-0.792,1.736-2.468,2.9-4.371,3.035l-24.542,1.771l21.329,18.045c1.559,1.323,2.206,3.433,1.649,5.397
	l-6.716,23.829l21.751-14.107C912.989,519.415,913.975,519.134,914.963,519.134z"/>
<g>
	<path fill="#83B3BD" d="M1169.182,493.573c-0.917-6.308-5.603-11.388-12.535-13.588c-3.67-1.168-9.896-2.723-14.959-3.931
		c9.286-13.289,11.112-27.021,7.658-34.886c-2.151-4.897-6.224-7.71-11.173-7.71c-9.561,0-12.057,8.007-13.881,13.852
		c-0.271,0.868-0.55,1.762-0.856,2.674c-1.692,5.037-10.185,14.122-22.58,21.035c-9.281,5.174-18.168,12.249-18.541,12.547
		c-1.238,0.991-1.959,2.49-1.959,4.075v50.248c0,1.679,0.805,3.253,2.166,4.233c7.469,5.378,33.807,9.744,47.038,9.744
		c6.885,0,9.591-1.082,11.033-1.896c5.939-3.357,13.839-22.372,19.619-38.369C1166.869,506.558,1170.124,500.062,1169.182,493.573z
		 M1152.919,503.999c-0.917,0.621-1.609,1.521-1.981,2.562c-5.17,14.472-12.576,31.519-15.559,34.349
		c-0.441,0.144-1.982,0.525-5.82,0.525c-12.362,0-31.56-3.686-38.771-6.659v-44.57c3.01-2.278,9.069-6.684,15.146-10.072
		c13.524-7.543,24.531-18.324,27.392-26.825c0.329-0.984,0.632-1.95,0.925-2.889c2.035-6.526,2.549-6.526,3.922-6.526
		c0.365,0,0.977,0,1.623,1.475c2.241,5.103,0.245,17.896-11.211,30.369c-1.259,1.372-1.691,3.312-1.134,5.09
		c0.558,1.774,2.02,3.122,3.838,3.527c0.158,0.036,15.82,3.544,22.194,5.573c3.039,0.962,5.048,2.889,5.374,5.147
		C1159.27,497.906,1157.104,501.159,1152.919,503.999z"/>
	<path fill="#83B3BD" d="M1062.383,478.565c-4.682,0-8.476,3.795-8.476,8.476v51.29c0,4.682,3.794,8.477,8.476,8.477
		s8.478-3.795,8.478-8.477v-51.29C1070.86,482.36,1067.064,478.565,1062.383,478.565z"/>
</g>
<g>
	<path fill="#83B3BD" d="M1342.662,475.2c-1.891,0-3.743,0.77-5.072,2.101c-1.344,1.33-2.101,3.183-2.101,5.071
		c0,1.892,0.757,3.744,2.101,5.073c1.329,1.33,3.182,2.1,5.072,2.1c1.877,0,3.729-0.77,5.072-2.1c1.331-1.344,2.1-3.183,2.1-5.073
		c0-1.89-0.77-3.741-2.1-5.071C1346.392,475.969,1344.539,475.2,1342.662,475.2z"/>
	<path fill="#83B3BD" d="M1357.438,486.505c-1.893,0-3.743,0.771-5.074,2.102c-1.329,1.343-2.099,3.182-2.099,5.071
		c0,1.891,0.77,3.743,2.099,5.072c1.343,1.33,3.182,2.1,5.074,2.1c1.892,0,3.742-0.77,5.071-2.1
		c1.331-1.329,2.101-3.182,2.101-5.072c0-1.89-0.77-3.729-2.101-5.071C1361.18,487.275,1359.329,486.505,1357.438,486.505z"/>
	<path fill="#83B3BD" d="M1308.053,484.118h-4.294v-4.297c0-1.803-1.46-3.263-3.26-3.263c-1.801,0-3.26,1.46-3.26,3.263v4.297
		h-4.294c-1.801,0-3.26,1.458-3.26,3.258c0,1.801,1.459,3.261,3.26,3.261h4.294v4.294c0,1.803,1.459,3.263,3.26,3.263
		c1.8,0,3.26-1.46,3.26-3.263v-4.294h4.294c1.801,0,3.26-1.46,3.26-3.261C1311.312,485.576,1309.854,484.118,1308.053,484.118z"/>
	<path fill="#83B3BD" d="M1377.418,476.697c1.256-4.051,0.762-8.289-1.462-12.167c-2.614-4.557-7.417-8.063-11.422-8.339
		c-0.21-0.015-0.431-0.022-0.657-0.022c-3.636,0-8.646,2.229-11.485,3.66c-8.961-1.488-18.139-2.239-27.306-2.239
		c-12.821,0-22.212,1.465-26.099,2.196c-3.031-1.521-8.477-3.853-12.06-3.595c-4.003,0.274-8.807,3.782-11.421,8.339
		c-2.226,3.878-2.718,8.116-1.462,12.167c-3.29,7.759-14.559,35.613-14.559,53.15c0,3.887,1.41,7.443,3.969,10.02
		c2.551,2.564,6.057,3.979,9.872,3.979c5.707,0,11.51-3.098,16.337-8.721c3.873-4.509,10.516-12.91,13.896-17.216
		c4.492,1.01,12.914,2.519,23.068,2.519c7.507,0,14.661-0.827,21.317-2.461c3.395,4.319,9.998,12.671,13.854,17.158
		c4.829,5.623,10.631,8.721,16.337,8.721c7.891,0,13.839-6.019,13.839-13.997C1391.976,512.311,1380.707,484.456,1377.418,476.697z
		 M1378.136,533.413c-2.579,0-5.647-1.854-8.425-5.086c-5.077-5.911-15.569-19.369-15.675-19.504
		c-1.004-1.289-2.534-2.01-4.115-2.01c-0.494,0-0.992,0.067-1.481,0.213c-6.652,1.973-13.991,2.969-21.812,2.969
		c-13.33,0-23.511-2.941-23.605-2.969c-2.054-0.606-4.276,0.104-5.597,1.797c-0.104,0.135-10.596,13.593-15.676,19.504
		c-2.774,3.231-5.845,5.086-8.424,5.086c-1.032,0-1.887-0.312-2.474-0.901c-0.61-0.617-0.934-1.536-0.934-2.663
		c0-17.892,14.391-50.617,14.534-50.943c0.628-1.416,0.593-3.039-0.093-4.429c-0.7-1.41-0.739-2.72-0.124-4.123
		c0.89-2.029,2.748-3.396,3.542-3.736c1.376,0.161,5.017,1.636,7.923,3.226c1.123,0.616,2.435,0.793,3.687,0.506
		c0.101-0.022,10.276-2.324,25.696-2.324c9.164,0,18.333,0.8,27.254,2.382c1.175,0.207,2.377,0.007,3.42-0.562
		c2.875-1.577,6.626-3.092,7.908-3.231c0.786,0.329,2.663,1.7,3.56,3.744c0.614,1.402,0.575,2.712-0.125,4.122
		c-0.687,1.39-0.723,3.013-0.094,4.429c0.146,0.326,14.535,33.029,14.535,50.943C1381.544,532.081,1380.27,533.413,1378.136,533.413
		z"/>
</g>
<g>
	<path fill="#83B3BD" d="M117.268,636.556c-1.947-0.808-4.193-0.361-5.683,1.133L84.623,664.65H71.21
		c-2.88,0-5.216,2.334-5.216,5.215v46.301c0,2.881,2.335,5.215,5.216,5.215h13.413l26.962,26.962c0.997,0.998,2.331,1.53,3.688,1.53
		c0.672,0,1.351-0.13,1.994-0.398c1.95-0.808,3.221-2.71,3.221-4.817V641.375C120.488,639.265,119.218,637.363,117.268,636.556z
		 M110.056,732.062l-19.584-19.587c-0.978-0.977-2.305-1.527-3.688-1.527H76.426v-35.866h10.358c1.383,0,2.71-0.549,3.688-1.527
		l19.584-19.586V732.062z"/>
	<path fill="#83B3BD" d="M138.126,670.143c-1.926-2.145-5.225-2.32-7.366-0.397c-2.144,1.925-2.321,5.224-0.397,7.366
		c0.582,0.649,14.111,16.086,0,31.809c-1.924,2.146-1.746,5.443,0.397,7.364c0.996,0.895,2.241,1.335,3.482,1.335
		c1.429,0,2.854-0.584,3.883-1.731C154.364,697.795,145.227,678.054,138.126,670.143z"/>
	<path fill="#83B3BD" d="M154.614,655.602c-1.927-2.145-5.224-2.32-7.366-0.397c-2.143,1.924-2.321,5.221-0.397,7.366
		c1.115,1.242,27.012,30.792,0,60.891c-1.924,2.146-1.746,5.442,0.397,7.367c0.996,0.895,2.242,1.334,3.483,1.334
		c1.429,0,2.853-0.586,3.883-1.731C187.809,693.444,154.95,655.976,154.614,655.602z"/>
	<path fill="#83B3BD" d="M188.03,674.713c-5.303-17.725-15.759-29.508-16.202-30.004c-1.926-2.145-5.225-2.318-7.366-0.396
		c-2.144,1.926-2.321,5.225-0.396,7.366c0.092,0.104,9.329,10.517,13.968,26.023c6.118,20.445,1.417,39.506-13.968,56.649
		c-1.925,2.144-1.747,5.441,0.396,7.366c0.996,0.895,2.241,1.335,3.482,1.335c1.429,0,2.854-0.587,3.883-1.73
		C194.225,716.369,193,691.327,188.03,674.713z"/>
</g>
<path fill="#83B3BD" d="M372.715,640.461c-2.036-2.034-5.342-2.034-7.376,0l-18.209,18.212v-17.018c0-2.108-1.271-4.012-3.22-4.818
	c-1.951-0.807-4.194-0.361-5.685,1.132l-26.963,26.962H297.85c-2.881,0-5.216,2.334-5.216,5.216v43.021l-19.23,19.229
	c-2.037,2.036-2.037,5.341,0,7.378c1.018,1.018,2.354,1.527,3.688,1.527s2.67-0.511,3.688-1.527l18.112-18.111h12.37l26.963,26.962
	c0.998,0.998,2.332,1.526,3.69,1.526c0.671,0,1.349-0.131,1.995-0.396c1.948-0.807,3.22-2.709,3.22-4.818v-71.512l25.586-25.585
	C374.752,645.803,374.752,642.5,372.715,640.461z M303.066,675.363h10.357c1.383,0,2.71-0.549,3.687-1.527l19.586-19.586v14.856
	l-33.63,33.629V675.363z M336.696,732.343l-19.586-19.586c-0.977-0.977-2.304-1.525-3.687-1.525h-4.1l27.373-27.373V732.343
	L336.696,732.343z"/>
<path fill="#83B3BD" d="M552.777,751.254c-0.985,0-1.975-0.279-2.837-0.841l-30.528-19.8l-30.524,19.8
	c-1.821,1.182-4.185,1.112-5.935-0.179c-1.747-1.286-2.514-3.521-1.926-5.612l9.561-33.923l-28.533-24.146
	c-1.616-1.37-2.247-3.585-1.589-5.6c0.657-2.014,2.47-3.435,4.584-3.585l34.222-2.464l15.396-33.725
	c0.848-1.855,2.702-3.049,4.745-3.049s3.896,1.192,4.745,3.049l15.398,33.725l34.219,2.464c2.115,0.15,3.927,1.571,4.584,3.585
	c0.657,2.015,0.03,4.229-1.589,5.6L548.235,710.7l9.562,33.923c0.591,2.091-0.176,4.326-1.926,5.612
	C554.955,750.913,553.867,751.254,552.777,751.254z M519.412,719.179c0.988,0,1.976,0.281,2.84,0.844L544,734.128l-6.713-23.829
	c-0.555-1.966,0.089-4.074,1.65-5.396l21.324-18.044l-24.542-1.771c-1.902-0.136-3.579-1.3-4.371-3.036l-11.938-26.142
	l-11.938,26.142c-0.791,1.736-2.467,2.9-4.369,3.036l-24.542,1.771l21.327,18.044c1.56,1.322,2.206,3.432,1.65,5.396l-6.716,23.829
	l21.75-14.106C517.438,719.46,518.424,719.179,519.412,719.179z"/>
<g>
	<path fill="#83B3BD" d="M773.631,693.619c-0.917-6.307-5.604-11.387-12.537-13.588c-3.67-1.167-9.895-2.724-14.958-3.931
		c9.285-13.286,11.112-27.021,7.659-34.886c-2.152-4.896-6.225-7.709-11.174-7.709c-9.562,0-12.059,8.009-13.881,13.854
		c-0.271,0.867-0.549,1.761-0.856,2.672c-1.692,5.035-10.185,14.121-22.581,21.035c-9.281,5.174-18.167,12.249-18.542,12.547
		c-1.237,0.99-1.958,2.49-1.958,4.075v50.247c0,1.681,0.806,3.254,2.167,4.233c7.468,5.38,33.806,9.745,47.038,9.745
		c6.883,0,9.591-1.083,11.032-1.896c5.94-3.358,13.841-22.373,19.62-38.369C771.318,706.604,774.573,700.109,773.631,693.619z
		 M757.369,704.043c-0.918,0.623-1.61,1.521-1.983,2.562c-5.17,14.473-12.575,31.519-15.559,34.349
		c-0.44,0.144-1.982,0.527-5.819,0.527c-12.362,0-31.56-3.687-38.771-6.661v-44.572c3.01-2.275,9.068-6.682,15.146-10.069
		c13.524-7.544,24.532-18.323,27.394-26.823c0.329-0.986,0.632-1.951,0.924-2.89c2.035-6.526,2.549-6.526,3.922-6.526
		c0.364,0,0.976,0,1.623,1.475c2.241,5.102,0.244,17.896-11.212,30.367c-1.257,1.372-1.69,3.312-1.133,5.091
		c0.558,1.775,2.02,3.12,3.837,3.527c0.159,0.035,15.819,3.543,22.193,5.572c3.039,0.963,5.05,2.889,5.375,5.147
		C763.718,697.952,761.553,701.205,757.369,704.043z"/>
	<path fill="#83B3BD" d="M666.832,678.613c-4.681,0-8.477,3.793-8.477,8.474v51.29c0,4.683,3.795,8.477,8.477,8.477
		s8.476-3.794,8.476-8.477v-51.29C675.308,682.406,671.514,678.613,666.832,678.613z"/>
</g>
<g>
	<path fill="#83B3BD" d="M947.111,675.245c-1.892,0-3.744,0.771-5.073,2.103c-1.344,1.329-2.1,3.183-2.1,5.07
		c0,1.893,0.756,3.744,2.1,5.074c1.329,1.33,3.182,2.099,5.073,2.099c1.877,0,3.729-0.769,5.07-2.099
		c1.332-1.342,2.102-3.183,2.102-5.074c0-1.889-0.77-3.741-2.102-5.07C950.841,676.015,948.988,675.245,947.111,675.245z"/>
	<path fill="#83B3BD" d="M961.886,686.552c-1.892,0-3.744,0.77-5.073,2.103c-1.329,1.342-2.099,3.18-2.099,5.07
		c0,1.892,0.77,3.744,2.099,5.072c1.344,1.33,3.183,2.1,5.073,2.1c1.892,0,3.742-0.77,5.071-2.1
		c1.332-1.328,2.101-3.181,2.101-5.072c0-1.891-0.769-3.729-2.101-5.07C965.628,687.321,963.777,686.552,961.886,686.552z"/>
	<path fill="#83B3BD" d="M912.501,684.162h-4.293v-4.295c0-1.802-1.46-3.262-3.261-3.262s-3.261,1.46-3.261,3.262v4.295h-4.293
		c-1.802,0-3.261,1.46-3.261,3.262c0,1.8,1.459,3.26,3.261,3.26h4.293v4.293c0,1.803,1.46,3.263,3.261,3.263s3.261-1.46,3.261-3.263
		v-4.293h4.293c1.801,0,3.261-1.46,3.261-3.26C915.762,685.622,914.302,684.162,912.501,684.162z"/>
	<path fill="#83B3BD" d="M981.867,676.744c1.256-4.052,0.763-8.29-1.462-12.167c-2.614-4.556-7.417-8.062-11.422-8.339
		c-0.211-0.016-0.431-0.022-0.657-0.022c-3.636,0-8.646,2.229-11.483,3.659c-8.962-1.487-18.141-2.238-27.308-2.238
		c-12.82,0-22.211,1.466-26.099,2.196c-3.03-1.521-8.477-3.852-12.06-3.595c-4.003,0.275-8.808,3.783-11.422,8.339
		c-2.225,3.877-2.717,8.115-1.461,12.167c-3.29,7.758-14.559,35.614-14.559,53.151c0,3.886,1.409,7.441,3.968,10.018
		c2.551,2.564,6.056,3.979,9.872,3.979c5.706,0,11.509-3.098,16.337-8.722c3.873-4.508,10.517-12.91,13.896-17.215
		c4.491,1.009,12.913,2.518,23.067,2.518c7.508,0,14.662-0.824,21.317-2.461c3.395,4.319,9.996,12.67,13.854,17.158
		c4.83,5.624,10.631,8.722,16.337,8.722c7.891,0,13.84-6.02,13.84-13.996C996.425,712.358,985.156,684.501,981.867,676.744z
		 M982.584,733.458c-2.579,0-5.648-1.854-8.424-5.087c-5.077-5.91-15.569-19.368-15.675-19.503
		c-1.005-1.289-2.535-2.011-4.115-2.011c-0.494,0-0.992,0.068-1.48,0.215c-6.652,1.972-13.991,2.97-21.813,2.97
		c-13.329,0-23.51-2.94-23.606-2.97c-2.052-0.606-4.274,0.104-5.595,1.796c-0.106,0.135-10.597,13.593-15.676,19.503
		c-2.774,3.233-5.846,5.087-8.424,5.087c-1.032,0-1.889-0.311-2.474-0.902c-0.61-0.615-0.935-1.533-0.935-2.66
		c0-17.893,14.39-50.617,14.535-50.945c0.628-1.416,0.592-3.038-0.095-4.427c-0.698-1.411-0.737-2.721-0.123-4.123
		c0.891-2.03,2.748-3.398,3.543-3.737c1.376,0.16,5.018,1.635,7.924,3.224c1.122,0.617,2.435,0.795,3.688,0.508
		c0.1-0.022,10.275-2.324,25.695-2.324c9.164,0,18.334,0.8,27.255,2.382c1.176,0.206,2.378,0.006,3.419-0.564
		c2.876-1.574,6.628-3.091,7.909-3.231c0.786,0.33,2.663,1.702,3.558,3.746c0.615,1.402,0.576,2.712-0.124,4.123
		c-0.686,1.389-0.722,3.011-0.094,4.427c0.146,0.328,14.535,33.031,14.535,50.945C985.992,732.127,984.719,733.458,982.584,733.458z
		"/>
</g>
<path fill="#83B3BD" d="M2057.85,151.908c-0.771,0-1.55-0.172-2.271-0.521c-1.8-0.872-2.942-2.695-2.942-4.694V57.495
	c0-1.999,1.144-3.823,2.942-4.694c1.8-0.872,3.938-0.637,5.508,0.602L2117.52,98c1.252,0.989,1.98,2.498,1.98,4.093
	c0,1.596-0.729,3.103-1.98,4.092l-56.434,44.598C2060.146,151.527,2059.002,151.908,2057.85,151.908z M2063.068,68.266v67.656
	l42.803-33.829L2063.068,68.266z"/>
<path fill="#83B3BD" d="M2538.311,151.998h-89.188c-3.24,0-5.868-2.627-5.868-5.868V56.934c0-3.241,2.628-5.868,5.868-5.868h89.188
	c3.24,0,5.867,2.627,5.867,5.868v89.196C2544.178,149.371,2541.551,151.998,2538.311,151.998z M2454.989,140.262h77.452v-77.46
	h-77.452V140.262z"/>
<g>
	<path fill="#83B3BD" d="M1900.136,97.985l-56.098-44.333c-1.57-1.239-3.707-1.474-5.508-0.602c-1.8,0.872-2.943,2.695-2.943,4.695
		v88.666c0,1.999,1.144,3.822,2.943,4.694c0.722,0.35,1.499,0.521,2.271,0.521c1.152,0,2.296-0.381,3.236-1.123l56.098-44.333
		c1.252-0.989,1.981-2.497,1.981-4.093C1902.117,100.481,1901.388,98.974,1900.136,97.985z M1846.02,135.641V68.515l42.469,33.562
		L1846.02,135.641z"/>
	<path fill="#83B3BD" d="M1923.634,54.06c-3.241,0-5.868,2.628-5.868,5.869v85.358c0,3.241,2.627,5.869,5.868,5.869
		c3.24,0,5.868-2.627,5.868-5.869V59.929C1929.502,56.688,1926.874,54.06,1923.634,54.06z"/>
</g>
<g>
	<path fill="#83B3BD" d="M1740.056,52.52c-1.798-0.87-3.938-0.637-5.507,0.603l-56.095,44.333c-1.252,0.99-1.981,2.497-1.981,4.093
		c0,1.596,0.729,3.103,1.981,4.092l56.095,44.333c0.94,0.743,2.082,1.124,3.235,1.124c0.772,0,1.55-0.171,2.271-0.522
		c1.801-0.871,2.944-2.694,2.944-4.694V57.214C1743,55.214,1741.855,53.391,1740.056,52.52z M1732.567,135.11l-42.468-33.562
		l42.468-33.562V135.11z"/>
	<path fill="#83B3BD" d="M1654.021,53.53c-3.241,0-5.869,2.627-5.869,5.868v85.359c0,3.241,2.628,5.867,5.869,5.867
		c3.239,0,5.867-2.626,5.867-5.867V59.398C1659.89,56.157,1657.262,53.53,1654.021,53.53z"/>
</g>
<path fill="#83B3BD" d="M2884.016,152.937c-28.345,0-51.405-23.061-51.405-51.406c0-28.344,23.062-51.404,51.405-51.404
	s51.404,23.06,51.404,51.404C2935.42,129.876,2912.357,152.937,2884.016,152.937z M2884.016,61.863
	c-21.873,0-39.67,17.795-39.67,39.668c0,21.874,17.797,39.67,39.67,39.67s39.668-17.796,39.668-39.67
	C2923.684,79.658,2905.888,61.863,2884.016,61.863z"/>
<g>
	<path fill="#83B3BD" d="M2664.872,50.232c-4.321,0-7.825,3.503-7.825,7.825v89.196c0,4.32,3.504,7.824,7.825,7.824
		s7.823-3.504,7.823-7.824V58.057C2672.695,53.736,2669.193,50.232,2664.872,50.232z"/>
	<path fill="#83B3BD" d="M2711.643,50.232c-4.321,0-7.824,3.503-7.824,7.825v89.196c0,4.32,3.503,7.824,7.824,7.824
		c4.319,0,7.822-3.504,7.822-7.824V58.057C2719.465,53.736,2715.962,50.232,2711.643,50.232z"/>
</g>
<g>
	<path fill="#83B3BD" d="M3264.928,122.786l17.605,0.136c0.012,0,0.061,0,0.07,0c6.297,0,12.521-6.166,12.567-12.447l0.483-63.17
		c0.048-6.211-6.235-12.59-12.447-12.639l-17.676-0.134c-6.297,0-12.521,6.165-12.567,12.447l-0.482,63.167
		c-0.023,2.985,1.382,6.138,3.854,8.651C3258.812,121.309,3261.943,122.762,3264.928,122.786z M3263.393,47.136
		c0.127-0.717,1.491-2.06,2.133-2.173l17.521,0.129c0.719,0.128,2.063,1.493,2.178,2.133l-0.479,63.089
		c-0.127,0.71-1.463,2.031-2.187,2.174l-17.473-0.13c-0.716-0.128-2.057-1.491-2.172-2.132L3263.393,47.136z"/>
	<path fill="#83B3BD" d="M3301.124,157.241l-23.093-0.177l0.098-12.882c0.02-2.521-2.008-4.58-4.527-4.599c-0.014,0-0.023,0-0.037,0
		c-2.504,0-4.545,2.021-4.562,4.529l-0.101,12.882l-23.094-0.177c-0.012,0-0.021,0-0.034,0c-2.503,0-4.544,2.021-4.562,4.529
		c-0.021,2.521,2.008,4.579,4.528,4.6l27.658,0.211l0,0l0,0l27.657,0.212c0.013,0,0.024,0,0.036,0c2.504,0,4.544-2.02,4.562-4.528
		C3305.673,159.319,3303.646,157.261,3301.124,157.241z"/>
	<path fill="#83B3BD" d="M3305.357,76.056c-0.014,0-0.024,0-0.035,0c-2.504,0-4.545,2.02-4.564,4.529l-0.297,38.851
		c-0.018,2.251-0.91,4.361-2.516,5.941c-1.604,1.58-3.722,2.432-5.979,2.423l-36.546-0.28c-2.253-0.017-4.361-0.911-5.941-2.515
		c-1.578-1.604-2.439-3.728-2.423-5.979l0.298-38.851c0.021-2.521-2.01-4.58-4.528-4.6c-0.013,0-0.024,0-0.036,0
		c-2.504,0-4.544,2.02-4.562,4.53l-0.299,38.85c-0.035,4.689,1.756,9.113,5.049,12.454c3.291,3.343,7.686,5.204,12.375,5.24
		l36.547,0.279c0.047,0,0.092,0.001,0.14,0.001c4.637,0,9.007-1.79,12.314-5.048c3.341-3.292,5.2-7.686,5.238-12.375l0.297-38.851
		C3309.906,78.134,3307.877,76.076,3305.357,76.056z"/>
</g>
<g>
	<path fill="#83B3BD" d="M3511.727,54.362c-11.026-11.199-25.759-17.433-41.476-17.554c-32.406-0.292-59.043,25.946-59.29,58.39
		l-0.27,35.158c-0.023,2.881,2.295,5.234,5.176,5.256c0.012,0,0.025,0,0.041,0c2.861,0,5.193-2.309,5.216-5.175l0.271-35.158
		c0.202-26.567,21.882-48.039,48.4-48.039c0.127,0,0.25,0,0.377,0c12.93,0.1,25.048,5.228,34.121,14.443
		c9.074,9.212,14.015,21.407,13.917,34.338l-0.271,35.159c-0.021,2.881,2.298,5.233,5.179,5.255c0.012,0,0.025,0,0.039,0
		c2.86,0,5.194-2.309,5.216-5.175l0.268-35.158C3528.762,80.384,3522.756,65.561,3511.727,54.362z"/>
	<path fill="#83B3BD" d="M3488.624,96.472c-0.013,0-0.022,0-0.036,0c-2.503,0-4.543,2.021-4.562,4.53l-0.451,58.492
		c-0.019,2.521,2.01,4.58,4.529,4.6l0.345,0.001c0.002,0,0,0,0.002,0c18.077,0,22.939-11.24,22.985-17.183l0.252-32.899
		c0.003-0.479-0.054-4.809-3.136-9.111C3505.834,101.106,3500.17,96.561,3488.624,96.472z M3502.309,146.761
		c-0.054,1.198-0.801,6.576-9.567,7.907l0.374-48.7c8.742,1.462,9.408,6.84,9.443,7.974L3502.309,146.761z"/>
	<path fill="#83B3BD" d="M3451.984,96.192l-0.345-0.001c-18.075,0-22.939,11.241-22.985,17.185l-0.252,32.901
		c-0.004,0.479,0.054,4.808,3.135,9.108c2.72,3.795,8.384,8.339,19.93,8.428c0.01,0,0.023,0,0.034,0
		c2.504,0,4.546-2.021,4.562-4.529l0.449-58.492c0.01-1.21-0.462-2.375-1.312-3.238
		C3454.354,96.691,3453.195,96.202,3451.984,96.192z M3446.975,154.317c-8.74-1.462-9.405-6.837-9.442-7.971l0.25-32.819
		c0.056-1.198,0.802-6.578,9.567-7.909L3446.975,154.317z"/>
</g>
<g>
	<path fill="#83B3BD" d="M3655.393,44.295c-1.945-0.808-4.192-0.362-5.684,1.131l-26.962,26.962h-13.411
		c-2.883,0-5.217,2.335-5.217,5.216v46.299c0,2.881,2.334,5.216,5.217,5.216h13.411l26.962,26.962
		c0.998,0.999,2.331,1.528,3.689,1.528c0.67,0,1.351-0.13,1.993-0.397c1.951-0.807,3.222-2.709,3.222-4.819V49.115
		C3658.613,47.004,3657.344,45.102,3655.393,44.295z M3648.181,139.801l-19.584-19.585c-0.979-0.979-2.306-1.528-3.688-1.528
		h-10.356V82.82h10.356c1.383,0,2.71-0.548,3.688-1.527l19.584-19.585V139.801z"/>
	<path fill="#83B3BD" d="M3676.251,77.882c-1.925-2.145-5.226-2.32-7.366-0.397c-2.143,1.924-2.32,5.223-0.396,7.366
		c0.582,0.649,14.11,16.084,0,31.808c-1.925,2.144-1.746,5.442,0.396,7.366c0.996,0.894,2.242,1.334,3.484,1.334
		c1.428,0,2.852-0.584,3.882-1.732C3692.488,105.535,3683.354,85.792,3676.251,77.882z"/>
	<path fill="#83B3BD" d="M3692.738,63.34c-1.928-2.145-5.225-2.321-7.365-0.397c-2.145,1.924-2.321,5.222-0.396,7.367
		c1.113,1.243,27.013,30.792,0,60.891c-1.925,2.145-1.748,5.442,0.396,7.366c0.997,0.895,2.24,1.335,3.482,1.335
		c1.43,0,2.854-0.585,3.883-1.732C3725.934,101.182,3693.074,63.715,3692.738,63.34z"/>
	<path fill="#83B3BD" d="M3726.154,82.452c-5.303-17.723-15.76-29.508-16.201-30.001c-1.925-2.147-5.225-2.322-7.366-0.398
		c-2.143,1.924-2.321,5.223-0.396,7.366c0.093,0.104,9.33,10.514,13.969,26.024c6.118,20.446,1.417,39.505-13.969,56.649
		c-1.926,2.144-1.746,5.442,0.396,7.367c0.997,0.894,2.242,1.334,3.484,1.334c1.429,0,2.852-0.584,3.882-1.732
		C3732.35,124.107,3731.124,99.065,3726.154,82.452z"/>
</g>
<path fill="#83B3BD" d="M3910.84,48.202c-2.035-2.036-5.342-2.036-7.377,0l-18.209,18.209V49.396c0-2.11-1.271-4.012-3.219-4.819
	c-1.953-0.808-4.196-0.363-5.686,1.13l-26.965,26.961h-13.41c-2.882,0-5.218,2.336-5.218,5.216v43.022l-19.229,19.229
	c-2.037,2.037-2.037,5.34,0,7.377c1.018,1.019,2.354,1.528,3.688,1.528s2.67-0.509,3.688-1.528l18.111-18.111h12.369l26.965,26.962
	c0.996,0.998,2.331,1.527,3.688,1.527c0.674,0,1.353-0.129,1.997-0.397c1.947-0.807,3.22-2.709,3.22-4.818V81.164l25.586-25.584
	C3912.876,53.542,3912.876,50.24,3910.84,48.202z M3841.189,83.101h10.356c1.383,0,2.71-0.549,3.688-1.527l19.586-19.585v14.854
	l-33.632,33.63L3841.189,83.101L3841.189,83.101z M3874.821,140.083l-19.586-19.586c-0.979-0.978-2.306-1.527-3.688-1.527h-4.099
	l27.373-27.373V140.083z"/>
<path fill="#83B3BD" d="M1365.256,47.584c0.011-1.581-0.693-3.083-1.921-4.083c-1.226-0.999-2.839-1.388-4.386-1.058l-68.602,14.661
	c-2.391,0.511-4.105,2.615-4.125,5.06l-0.473,61.435c-3.823-2.275-8.452-3.631-13.449-3.669h-0.222
	c-13.061,0-23.755,9.071-23.84,20.221c-0.085,11.248,10.567,20.482,23.75,20.584h0.219c13.063,0,23.76-9.069,23.847-20.218v-0.001
	l0,0l0.411-53.551l58.151-12.427l-0.264,34.401c-3.824-2.276-8.454-3.631-13.451-3.669l-0.223-0.001
	c-13.062,0-23.757,9.07-23.843,20.22c-0.085,11.25,10.57,20.484,23.752,20.585l0.217,0.001c12.046,0,22.061-7.717,23.619-17.66
	c0.128-0.444,0.219-0.905,0.222-1.391L1365.256,47.584z M1272.208,150.303l-0.139-0.001c-7.305-0.056-13.438-4.668-13.397-10.073
	c0.041-5.44,6.057-9.867,13.408-9.867h0.142c7.306,0.055,13.442,4.67,13.401,10.074
	C1285.581,145.876,1279.561,150.303,1272.208,150.303z M1296.527,78.952l0.097-12.52l58.15-12.428l-0.097,12.521L1296.527,78.952z
	 M1340.806,135.642l-0.137-0.001c-7.305-0.055-13.439-4.669-13.399-10.074c0.041-5.441,6.057-9.866,13.41-9.866l0.143,0.001
	c7.306,0.056,13.442,4.668,13.401,10.073C1354.182,131.216,1348.164,135.642,1340.806,135.642z"/>
<g>
	<path fill="#83B3BD" d="M1554.286,72.02c-5.576-12.492-17.414-20.563-30.159-20.563c-12.91,0-21.203,5.743-26.011,11.872
		c-4.812-6.128-13.103-11.872-26.016-11.872c-12.741,0-24.579,8.071-30.154,20.563c-5.765,12.911-3.224,27.286,6.795,38.453
		c24.257,27.043,45.689,46.212,45.902,46.403c0.989,0.88,2.231,1.322,3.473,1.322c1.239,0,2.48-0.441,3.472-1.322
		c0.21-0.191,21.646-19.36,45.9-46.403C1557.508,99.306,1560.047,84.931,1554.286,72.02z M1539.722,103.506
		c-18.145,20.23-34.659,35.958-41.605,42.404c-6.95-6.446-23.462-22.174-41.609-42.404c-7.295-8.132-9.131-18.058-5.036-27.234
		c3.842-8.603,12.131-14.383,20.631-14.383c16.812,0,20.582,12.496,20.946,13.878c0.572,2.334,2.664,3.976,5.068,3.976
		c2.401,0,4.495-1.641,5.065-3.976c0.138-0.567,3.597-13.878,20.945-13.878c8.502,0,16.792,5.78,20.63,14.383
		C1548.854,85.448,1547.02,95.374,1539.722,103.506z"/>
	<path fill="#83B3BD" d="M1524.074,67.575c-2.863-0.397-5.484,1.609-5.874,4.463s1.609,5.484,4.465,5.873
		c0.271,0.038,6.692,1.018,7.305,10.197c0.185,2.756,2.477,4.869,5.198,4.869c0.117,0,0.234-0.002,0.351-0.01
		c2.876-0.191,5.052-2.676,4.86-5.551C1539.445,73.353,1529.305,68.287,1524.074,67.575z"/>
	<path fill="#83B3BD" d="M1528.857,95.233c-1.371,0-2.713,0.56-3.69,1.526c-0.966,0.962-1.526,2.307-1.526,3.69
		c0,1.368,0.561,2.71,1.526,3.688c0.979,0.965,2.32,1.528,3.69,1.528c1.366,0,2.712-0.563,3.689-1.528
		c0.965-0.978,1.526-2.32,1.526-3.688c0-1.383-0.562-2.728-1.526-3.69C1531.569,95.793,1530.224,95.233,1528.857,95.233z"/>
</g>
<g>
	<path fill="#83B3BD" d="M2319.146,91.298c0.368-6.018-1.186-11.469-4.541-15.704c-3.888-4.9-9.83-7.709-16.307-7.709
		c-4.063,0-8.046,1.105-11.63,3.181c-6.679-9.352-16.093-14.604-26.52-14.604c-10.302,0-20.206,5.268-25.849,13.743
		c-4.554,6.844-5.884,14.823-3.906,22.913c-15.666,6.854-19.792,19.874-18.327,29.615c1.88,12.491,12.013,21.558,24.083,21.558
		c0.465,0,46.721,0.148,74.746,0.148c18.432,0,27.749-12.939,28.607-24.963C2340.291,108.442,2334.164,95.649,2319.146,91.298z
		 M2329.098,118.734c-0.543,7.601-6.379,15.272-18.199,15.272c-28.01,0-74.25-0.147-74.729-0.147
		c-7.799,0-12.839-6.378-13.786-12.677c-1.347-8.97,4.659-16.423,16.067-19.932c1.403-0.433,2.562-1.441,3.188-2.773
		c0.625-1.334,0.657-2.868,0.091-4.225c-2.715-6.482-2.269-12.97,1.258-18.264c3.732-5.609,10.312-9.093,17.165-9.093
		c8.342,0,15.616,5.048,20.482,14.217c0.772,1.449,2.181,2.453,3.806,2.707c1.616,0.252,3.271-0.272,4.447-1.421
		c2.695-2.631,6.037-4.081,9.413-4.081c3.272,0,6.237,1.371,8.13,3.76c2.327,2.937,2.941,7.121,1.775,12.103
		c-0.333,1.427-0.055,2.924,0.771,4.131c0.822,1.21,2.118,2.014,3.565,2.224C2324.749,102.284,2329.655,110.936,2329.098,118.734z"
		/>
	<path fill="#83B3BD" d="M2258.289,72.127c-10.734,0.948-14.011,9.511-13.595,15.035c0.181,2.396,2.184,4.22,4.546,4.22
		c0.117,0,0.231-0.005,0.35-0.013c2.514-0.191,4.397-2.382,4.207-4.896c-0.084-1.115,0.049-4.79,5.296-5.253
		c2.509-0.222,4.364-2.436,4.145-4.947C2263.018,73.763,2260.803,71.894,2258.289,72.127z"/>
</g>
<g>
	<path fill="#83B3BD" d="M3070.378,105.862c16.619,0,30.139-13.519,30.139-30.135c0-16.616-13.52-30.135-30.139-30.135
		c-16.616,0-30.135,13.519-30.135,30.135C3040.243,92.343,3053.762,105.862,3070.378,105.862z M3070.378,56.023
		c10.867,0,19.706,8.838,19.706,19.703c0,10.865-8.839,19.703-19.706,19.703c-10.864,0-19.702-8.838-19.702-19.703
		C3050.676,64.862,3059.514,56.023,3070.378,56.023z"/>
	<path fill="#83B3BD" d="M3084.186,106.983c-1.707-0.545-3.58-0.17-4.946,0.989l-8.86,7.496l-8.855-7.496
		c-1.371-1.159-3.242-1.534-4.946-0.989c-8.694,2.758-37.062,12.946-37.062,28.164c0,2.881,2.336,5.216,5.216,5.216h91.304
		c2.88,0,5.216-2.335,5.216-5.216C3121.247,119.929,3092.879,109.741,3084.186,106.983z M3033.545,129.931
		c4.959-4.195,14.323-8.896,23.479-12.101l9.985,8.451c1.946,1.646,4.794,1.646,6.738,0l9.987-8.451
		c9.156,3.205,18.521,7.905,23.479,12.101H3033.545z"/>
	<path fill="#83B3BD" d="M3133.088,106.642c-1.932-0.958-4.277-0.168-5.238,1.765c-0.961,1.933-0.171,4.282,1.762,5.245
		c3.189,1.589,8.885,5.26,11.657,8.985h-13.907c-2.159,0-3.91,1.75-3.91,3.913c0,2.16,1.751,3.913,3.91,3.913h19.426
		c2.16,0,3.912-1.753,3.912-3.913C3150.698,115.681,3134.889,107.536,3133.088,106.642z"/>
	<path fill="#83B3BD" d="M3113.698,99.969c-3.202,0-6.212-1.246-8.476-3.51c-1.527-1.528-4.005-1.528-5.531-0.002
		c-1.529,1.528-1.529,4.007-0.002,5.535c3.739,3.741,8.716,5.801,14.009,5.801c10.924,0,19.809-8.886,19.809-19.812
		c0-10.922-8.885-19.808-19.809-19.808c-2.669,0-5.265,0.524-7.711,1.559c-1.989,0.84-2.923,3.135-2.081,5.125
		c0.839,1.991,3.138,2.924,5.127,2.083c1.478-0.624,3.048-0.942,4.665-0.942c6.608,0,11.985,5.376,11.985,11.983
		C3125.684,94.592,3120.309,99.969,3113.698,99.969z"/>
</g>
<path fill="#83B3BD" d="M2843.76,343.949c-0.771,0-1.549-0.172-2.271-0.521c-1.8-0.871-2.942-2.694-2.942-4.693v-89.197
	c0-2,1.144-3.823,2.942-4.694c1.798-0.872,3.938-0.637,5.507,0.603l56.434,44.598c1.252,0.988,1.981,2.496,1.981,4.092
	c0,1.596-0.729,3.104-1.981,4.092l-56.434,44.598C2846.056,343.567,2844.913,343.949,2843.76,343.949z M2848.979,260.306v67.657
	l42.805-33.829L2848.979,260.306z"/>
<path fill="#83B3BD" d="M3324.22,344.039h-89.188c-3.24,0-5.867-2.627-5.867-5.868v-89.196c0-3.241,2.627-5.868,5.867-5.868h89.188
	c3.241,0,5.869,2.627,5.869,5.868v89.196C3330.089,341.412,3327.461,344.039,3324.22,344.039z M3240.9,332.304h77.451v-77.461
	H3240.9V332.304z"/>
<g>
	<path fill="#83B3BD" d="M2686.046,290.026l-56.097-44.333c-1.571-1.24-3.707-1.475-5.51-0.603c-1.8,0.872-2.941,2.695-2.941,4.694
		v88.667c0,2,1.143,3.823,2.941,4.693c0.723,0.351,1.5,0.522,2.271,0.522c1.152,0,2.296-0.382,3.237-1.124l56.097-44.334
		c1.252-0.989,1.98-2.497,1.98-4.092C2688.025,292.522,2687.298,291.016,2686.046,290.026z M2631.931,327.682v-67.125l42.468,33.562
		L2631.931,327.682z"/>
	<path fill="#83B3BD" d="M2709.545,246.102c-3.242,0-5.869,2.627-5.869,5.868v85.358c0,3.241,2.627,5.869,5.869,5.869
		c3.24,0,5.867-2.627,5.867-5.869V251.97C2715.412,248.729,2712.785,246.102,2709.545,246.102z"/>
</g>
<g>
	<path fill="#83B3BD" d="M2525.966,244.561c-1.798-0.87-3.938-0.636-5.508,0.603l-56.094,44.333
		c-1.252,0.99-1.982,2.497-1.982,4.093c0,1.596,0.73,3.104,1.982,4.092l56.094,44.333c0.94,0.742,2.082,1.125,3.236,1.125
		c0.771,0,1.55-0.172,2.271-0.522c1.801-0.871,2.944-2.695,2.944-4.694v-88.667C2528.91,247.256,2527.766,245.433,2525.966,244.561z
		 M2518.479,327.151l-42.468-33.562l42.468-33.562V327.151z"/>
	<path fill="#83B3BD" d="M2439.932,245.571c-3.24,0-5.867,2.627-5.867,5.868v85.358c0,3.241,2.627,5.868,5.867,5.868
		s5.869-2.627,5.869-5.868v-85.358C2445.801,248.198,2443.172,245.571,2439.932,245.571z"/>
</g>
<path fill="#83B3BD" d="M3669.926,344.978c-28.346,0-51.406-23.061-51.406-51.406c0-28.344,23.062-51.404,51.406-51.404
	c28.344,0,51.403,23.06,51.403,51.404C3721.329,321.917,3698.27,344.978,3669.926,344.978z M3669.926,253.904
	c-21.873,0-39.669,17.795-39.669,39.668c0,21.874,17.796,39.67,39.669,39.67s39.667-17.796,39.667-39.67
	C3709.593,271.699,3691.799,253.904,3669.926,253.904z"/>
<g>
	<path fill="#83B3BD" d="M3450.783,242.273c-4.322,0-7.825,3.503-7.825,7.825v89.196c0,4.321,3.503,7.824,7.825,7.824
		c4.318,0,7.822-3.503,7.822-7.824v-89.196C3458.605,245.777,3455.104,242.273,3450.783,242.273z"/>
	<path fill="#83B3BD" d="M3497.551,242.273c-4.318,0-7.822,3.503-7.822,7.825v89.196c0,4.321,3.504,7.824,7.822,7.824
		c4.322,0,7.825-3.503,7.825-7.824v-89.196C3505.376,245.777,3501.873,242.273,3497.551,242.273z"/>
</g>
<path fill="#83B3BD" d="M2151.167,239.625c0.012-1.582-0.695-3.084-1.922-4.083s-2.838-1.388-4.386-1.059l-68.601,14.662
	c-2.392,0.511-4.106,2.615-4.126,5.06l-0.475,61.435c-3.821-2.274-8.449-3.63-13.447-3.668l-0.221-0.001
	c-13.062,0-23.757,9.071-23.843,20.222c-0.085,11.248,10.568,20.48,23.749,20.584h0.221c13.062,0,23.76-9.069,23.847-20.219v-0.001
	l0,0l0.411-53.551l58.151-12.427l-0.266,34.401c-3.822-2.275-8.454-3.631-13.449-3.669l-0.224-0.001
	c-13.062,0-23.758,9.07-23.843,20.22c-0.086,11.25,10.569,20.483,23.751,20.586h0.219c12.045,0,22.059-7.717,23.618-17.66
	c0.127-0.444,0.22-0.905,0.222-1.391L2151.167,239.625z M2058.118,342.343h-0.14c-7.305-0.055-13.438-4.668-13.396-10.073
	c0.04-5.439,6.057-9.866,13.409-9.866l0.14,0.001c7.306,0.054,13.441,4.669,13.4,10.073
	C2071.489,337.918,2065.473,342.343,2058.118,342.343z M2082.438,270.992l0.097-12.52l58.151-12.428l-0.098,12.521L2082.438,270.992
	z M2126.717,327.683h-0.138c-7.305-0.056-13.44-4.67-13.399-10.073c0.043-5.44,6.059-9.867,13.41-9.867l0.145,0.001
	c7.305,0.056,13.441,4.669,13.4,10.072C2140.093,323.257,2134.074,327.683,2126.717,327.683z"/>
<g>
	<path fill="#83B3BD" d="M2340.195,264.061c-5.574-12.492-17.413-20.563-30.158-20.563c-12.91,0-21.203,5.743-26.012,11.872
		c-4.812-6.128-13.102-11.872-26.016-11.872c-12.741,0-24.58,8.071-30.155,20.563c-5.763,12.912-3.222,27.286,6.796,38.453
		c24.257,27.042,45.688,46.21,45.902,46.403c0.989,0.88,2.232,1.322,3.473,1.322s2.479-0.441,3.473-1.322
		c0.211-0.192,21.646-19.36,45.9-46.403C2343.418,291.347,2345.957,276.973,2340.195,264.061z M2325.632,295.547
		c-18.144,20.23-34.657,35.958-41.605,42.404c-6.95-6.446-23.462-22.174-41.608-42.404c-7.295-8.132-9.132-18.058-5.037-27.234
		c3.842-8.603,12.133-14.383,20.631-14.383c16.812,0,20.584,12.496,20.947,13.878c0.572,2.334,2.663,3.976,5.067,3.976
		c2.401,0,4.495-1.641,5.064-3.976c0.14-0.567,3.597-13.878,20.946-13.878c8.502,0,16.793,5.78,20.632,14.383
		C2334.764,277.49,2332.93,287.415,2325.632,295.547z"/>
	<path fill="#83B3BD" d="M2309.982,259.616c-2.861-0.397-5.482,1.609-5.871,4.463c-0.391,2.854,1.608,5.484,4.465,5.873
		c0.271,0.038,6.693,1.017,7.305,10.197c0.184,2.756,2.477,4.869,5.197,4.869c0.117,0,0.234-0.002,0.352-0.01
		c2.876-0.191,5.051-2.675,4.86-5.551C2325.355,265.393,2315.216,260.328,2309.982,259.616z"/>
	<path fill="#83B3BD" d="M2314.768,287.275c-1.371,0-2.713,0.56-3.69,1.525c-0.966,0.963-1.524,2.308-1.524,3.69
		c0,1.368,0.56,2.71,1.524,3.688c0.979,0.966,2.32,1.528,3.69,1.528c1.368,0,2.711-0.562,3.689-1.528
		c0.966-0.978,1.527-2.32,1.527-3.688c0-1.383-0.562-2.727-1.527-3.69C2317.479,287.835,2316.136,287.275,2314.768,287.275z"/>
</g>
<g>
	<path fill="#83B3BD" d="M3105.059,283.339c0.368-6.018-1.187-11.468-4.541-15.704c-3.888-4.9-9.83-7.709-16.307-7.709
		c-4.063,0-8.047,1.105-11.63,3.182c-6.679-9.353-16.093-14.605-26.52-14.605c-10.304,0-20.206,5.268-25.85,13.743
		c-4.553,6.844-5.883,14.823-3.905,22.913c-15.668,6.854-19.795,19.874-18.33,29.616c1.881,12.489,12.016,21.557,24.086,21.557
		c0.463,0,46.721,0.148,74.743,0.148c18.435,0,27.75-12.939,28.609-24.964C3126.202,300.483,3120.073,287.69,3105.059,283.339z
		 M3115.008,310.776c-0.543,7.6-6.38,15.271-18.201,15.271c-28.007,0-74.248-0.147-74.727-0.147
		c-7.799,0-12.839-6.378-13.787-12.676c-1.346-8.971,4.66-16.423,16.066-19.933c1.405-0.432,2.564-1.441,3.188-2.773
		c0.625-1.334,0.657-2.868,0.09-4.225c-2.714-6.482-2.269-12.969,1.259-18.264c3.731-5.608,10.312-9.093,17.164-9.093
		c8.343,0,15.616,5.048,20.483,14.217c0.771,1.449,2.18,2.453,3.806,2.707c1.616,0.252,3.271-0.272,4.446-1.421
		c2.695-2.631,6.038-4.08,9.414-4.08c3.271,0,6.236,1.37,8.13,3.759c2.326,2.937,2.939,7.122,1.773,12.103
		c-0.334,1.427-0.053,2.924,0.771,4.131c0.824,1.21,2.12,2.015,3.564,2.223C3110.66,294.325,3115.564,302.977,3115.008,310.776z"/>
	<path fill="#83B3BD" d="M3044.2,264.169c-10.735,0.948-14.011,9.51-13.595,15.035c0.179,2.396,2.182,4.22,4.545,4.22
		c0.116,0,0.232-0.005,0.35-0.013c2.514-0.191,4.398-2.381,4.208-4.896c-0.085-1.115,0.047-4.79,5.295-5.254
		c2.509-0.221,4.365-2.435,4.146-4.946C3048.928,265.805,3046.714,263.935,3044.2,264.169z"/>
</g>
<g>
	<path fill="#83B3BD" d="M3856.289,297.904c16.619,0,30.137-13.519,30.137-30.136c0-16.616-13.518-30.135-30.137-30.135
		c-16.617,0-30.137,13.519-30.137,30.135C3826.152,284.385,3839.672,297.904,3856.289,297.904z M3856.289,248.065
		c10.867,0,19.704,8.838,19.704,19.703c0,10.866-8.837,19.703-19.704,19.703c-10.865,0-19.704-8.836-19.704-19.703
		C3836.585,256.903,3845.424,248.065,3856.289,248.065z"/>
	<path fill="#83B3BD" d="M3870.096,299.024c-1.707-0.544-3.579-0.17-4.945,0.989l-8.86,7.496l-8.857-7.496
		c-1.37-1.159-3.241-1.533-4.946-0.989c-8.692,2.758-37.062,12.946-37.062,28.164c0,2.882,2.336,5.217,5.215,5.217h91.302
		c2.882,0,5.219-2.335,5.219-5.217C3907.158,311.97,3878.79,301.782,3870.096,299.024z M3819.454,321.972
		c4.958-4.193,14.324-8.896,23.479-12.101l9.985,8.451c1.946,1.646,4.795,1.646,6.738,0l9.988-8.451
		c9.155,3.205,18.521,7.906,23.479,12.101H3819.454z"/>
	<path fill="#83B3BD" d="M3918.998,298.683c-1.932-0.958-4.277-0.168-5.239,1.766c-0.96,1.932-0.169,4.281,1.761,5.244
		c3.191,1.589,8.888,5.26,11.66,8.986h-13.906c-2.161,0-3.911,1.75-3.911,3.912c0,2.16,1.75,3.913,3.911,3.913h19.425
		c2.159,0,3.911-1.753,3.911-3.913C3936.607,307.722,3920.8,299.577,3918.998,298.683z"/>
	<path fill="#83B3BD" d="M3899.609,292.01c-3.203,0-6.213-1.246-8.476-3.51c-1.529-1.527-4.005-1.527-5.533-0.002
		c-1.528,1.529-1.528,4.007-0.002,5.535c3.741,3.741,8.718,5.801,14.011,5.801c10.922,0,19.809-8.886,19.809-19.812
		c0-10.921-8.887-19.808-19.809-19.808c-2.67,0-5.265,0.524-7.711,1.56c-1.99,0.84-2.924,3.134-2.082,5.124
		c0.84,1.992,3.139,2.925,5.125,2.083c1.479-0.624,3.049-0.942,4.668-0.942c6.608,0,11.984,5.376,11.984,11.983
		C3911.595,286.633,3906.219,292.01,3899.609,292.01z"/>
</g>
<path fill="#83B3BD" d="M2256.775,544.122c-0.772,0-1.55-0.171-2.271-0.521c-1.799-0.872-2.943-2.696-2.943-4.696v-89.196
	c0-1.998,1.146-3.822,2.943-4.693c1.8-0.871,3.938-0.638,5.507,0.604l56.435,44.598c1.252,0.988,1.979,2.496,1.979,4.093
	c0,1.596-0.729,3.103-1.979,4.093L2260.011,543C2259.071,543.741,2257.929,544.122,2256.775,544.122z M2261.992,460.48v67.654
	l42.806-33.827L2261.992,460.48z"/>
<path fill="#83B3BD" d="M2737.234,544.214h-89.188c-3.242,0-5.869-2.631-5.869-5.869v-89.195c0-3.244,2.627-5.868,5.869-5.868
	h89.188c3.241,0,5.868,2.624,5.868,5.868v89.195C2743.104,541.583,2740.477,544.214,2737.234,544.214z M2653.914,532.476h77.453
	v-77.46h-77.453V532.476z"/>
<g>
	<path fill="#83B3BD" d="M2099.062,490.2l-56.099-44.334c-1.569-1.238-3.708-1.474-5.508-0.603c-1.8,0.87-2.944,2.694-2.944,4.694
		v88.666c0,2,1.146,3.824,2.944,4.693c0.722,0.352,1.499,0.522,2.271,0.522c1.153,0,2.297-0.382,3.237-1.123l56.099-44.335
		c1.25-0.987,1.98-2.495,1.98-4.092C2101.043,492.697,2100.312,491.188,2099.062,490.2z M2044.944,527.854v-67.125l42.47,33.562
		L2044.944,527.854z"/>
	<path fill="#83B3BD" d="M2122.559,446.274c-3.239,0-5.866,2.628-5.866,5.868v85.358c0,3.241,2.627,5.869,5.866,5.869
		c3.241,0,5.869-2.628,5.869-5.869v-85.358C2128.428,448.902,2125.8,446.274,2122.559,446.274z"/>
</g>
<g>
	<path fill="#83B3BD" d="M1938.98,444.735c-1.797-0.872-3.938-0.639-5.508,0.6l-56.095,44.335c-1.251,0.988-1.981,2.497-1.981,4.092
		c0,1.598,0.73,3.104,1.981,4.092l56.095,44.334c0.94,0.742,2.082,1.125,3.236,1.125c0.771,0,1.549-0.173,2.271-0.521
		c1.8-0.871,2.943-2.695,2.943-4.693V449.43C1941.925,447.428,1940.781,445.604,1938.98,444.735z M1931.493,527.324l-42.467-33.562
		l42.467-33.562V527.324z"/>
	<path fill="#83B3BD" d="M1852.947,445.745c-3.242,0-5.869,2.627-5.869,5.868v85.359c0,3.238,2.626,5.867,5.869,5.867
		c3.24,0,5.868-2.629,5.868-5.867v-85.359C1858.814,448.372,1856.188,445.745,1852.947,445.745z"/>
</g>
<path fill="#83B3BD" d="M3082.939,545.15c-28.345,0-51.404-23.061-51.404-51.404c0-28.346,23.061-51.406,51.404-51.406
	c28.345,0,51.403,23.062,51.403,51.406C3134.344,522.09,3111.284,545.15,3082.939,545.15z M3082.939,454.078
	c-21.873,0-39.668,17.794-39.668,39.668c0,21.873,17.795,39.668,39.668,39.668s39.668-17.795,39.668-39.668
	C3122.607,471.872,3104.812,454.078,3082.939,454.078z"/>
<g>
	<path fill="#83B3BD" d="M2863.798,442.447c-4.321,0-7.825,3.502-7.825,7.825v89.195c0,4.319,3.504,7.823,7.825,7.823
		c4.319,0,7.823-3.504,7.823-7.823v-89.195C2871.621,445.949,2868.117,442.447,2863.798,442.447z"/>
	<path fill="#83B3BD" d="M2910.566,442.447c-4.319,0-7.823,3.502-7.823,7.825v89.195c0,4.319,3.504,7.823,7.823,7.823
		c4.32,0,7.824-3.504,7.824-7.823v-89.195C2918.393,445.949,2914.888,442.447,2910.566,442.447z"/>
</g>
<g>
	<path fill="#83B3BD" d="M3463.854,515l17.604,0.133c0.013,0,0.06,0,0.071,0c6.295,0,12.52-6.164,12.566-12.446l0.484-63.17
		c0.047-6.21-6.235-12.588-12.448-12.637l-17.676-0.135c-6.295,0-12.52,6.166-12.565,12.446l-0.483,63.167
		c-0.022,2.983,1.382,6.139,3.855,8.649C3457.738,513.523,3460.869,514.976,3463.854,515z M3462.319,439.35
		c0.127-0.717,1.491-2.062,2.132-2.172l17.521,0.13c0.719,0.127,2.062,1.492,2.176,2.132l-0.479,63.09
		c-0.128,0.709-1.463,2.03-2.188,2.174l-17.472-0.132c-0.715-0.127-2.059-1.49-2.172-2.131L3462.319,439.35z"/>
	<path fill="#83B3BD" d="M3500.05,549.456l-23.094-0.178l0.099-12.882c0.021-2.521-2.008-4.578-4.528-4.601
		c-0.011,0-0.022,0-0.035,0c-2.504,0-4.544,2.022-4.563,4.529l-0.1,12.883l-23.093-0.178c-0.013,0-0.022,0-0.035,0
		c-2.504,0-4.544,2.021-4.563,4.528c-0.02,2.521,2.009,4.578,4.53,4.601l27.656,0.212l0,0l0,0l27.659,0.211c0.012,0,0.022,0,0.035,0
		c2.504,0,4.545-2.021,4.563-4.528C3504.6,551.533,3502.571,549.475,3500.05,549.456z"/>
	<path fill="#83B3BD" d="M3504.282,468.271c-0.013,0-0.022,0-0.036,0c-2.504,0-4.544,2.02-4.562,4.526l-0.3,38.853
		c-0.016,2.252-0.909,4.36-2.515,5.941c-1.604,1.58-3.72,2.435-5.979,2.422l-36.545-0.277c-2.252-0.019-4.362-0.912-5.944-2.518
		c-1.578-1.604-2.438-3.728-2.421-5.979l0.296-38.852c0.02-2.521-2.009-4.58-4.529-4.598c-0.012,0-0.022,0-0.035,0
		c-2.504,0-4.545,2.021-4.562,4.529l-0.297,38.85c-0.039,4.69,1.756,9.112,5.045,12.455c3.291,3.342,7.688,5.2,12.377,5.238
		l36.545,0.278c0.049,0,0.095,0,0.142,0c4.637,0,9.005-1.788,12.315-5.048c3.341-3.291,5.2-7.686,5.235-12.374l0.298-38.853
		C3508.831,470.349,3506.804,468.289,3504.282,468.271z"/>
</g>
<g>
	<path fill="#83B3BD" d="M3710.652,446.575c-11.027-11.198-25.76-17.433-41.476-17.554c-32.407-0.293-59.043,25.945-59.291,58.392
		l-0.271,35.157c-0.021,2.881,2.296,5.234,5.177,5.256c0.013,0,0.028,0,0.041,0c2.861,0,5.194-2.308,5.216-5.175l0.271-35.158
		c0.205-26.567,21.881-48.04,48.401-48.04c0.125,0,0.25,0,0.377,0.002c12.931,0.101,25.05,5.228,34.123,14.441
		c9.072,9.213,14.014,21.407,13.914,34.338l-0.269,35.158c-0.021,2.883,2.296,5.233,5.177,5.257c0.014,0,0.027,0,0.04,0
		c2.861,0,5.193-2.31,5.216-5.178l0.27-35.156C3727.688,472.597,3721.68,457.775,3710.652,446.575z"/>
	<path fill="#83B3BD" d="M3687.551,488.688c-0.014,0-0.024,0-0.035,0c-2.506,0-4.545,2.02-4.563,4.528l-0.45,58.492
		c-0.019,2.521,2.008,4.58,4.529,4.6h0.345c0.001,0,0,0,0.001,0c18.075,0,22.938-11.238,22.985-17.182l0.252-32.9
		c0.004-0.479-0.055-4.809-3.135-9.108C3704.761,493.319,3699.095,488.775,3687.551,488.688z M3701.234,538.974
		c-0.056,1.2-0.801,6.576-9.567,7.908l0.374-48.7c8.741,1.461,9.406,6.84,9.443,7.975L3701.234,538.974z"/>
	<path fill="#83B3BD" d="M3650.91,488.408l-0.344-0.003c-18.078,0-22.94,11.242-22.986,17.185l-0.252,32.9
		c-0.005,0.479,0.053,4.809,3.133,9.108c2.722,3.794,8.385,8.339,19.931,8.427c0.013,0,0.022,0,0.036,0
		c2.504,0,4.544-2.02,4.562-4.527l0.449-58.492c0.008-1.211-0.461-2.375-1.312-3.238
		C3653.279,488.905,3652.121,488.416,3650.91,488.408z M3645.9,546.531c-8.742-1.462-9.407-6.837-9.445-7.973l0.252-32.816
		c0.055-1.198,0.802-6.578,9.568-7.909L3645.9,546.531z"/>
</g>
<g>
	<path fill="#83B3BD" d="M3854.318,436.51c-1.947-0.81-4.194-0.362-5.685,1.131l-26.962,26.963h-13.412
		c-2.881,0-5.218,2.335-5.218,5.216v46.299c0,2.881,2.337,5.217,5.218,5.217h13.412l26.962,26.962
		c0.997,0.998,2.332,1.528,3.689,1.528c0.671,0,1.351-0.13,1.993-0.398c1.949-0.805,3.222-2.709,3.222-4.818V441.329
		C3857.539,439.22,3856.268,437.316,3854.318,436.51z M3847.105,532.016l-19.584-19.586c-0.979-0.979-2.306-1.527-3.688-1.527
		h-10.356v-35.866h10.356c1.383,0,2.71-0.55,3.688-1.528l19.584-19.587V532.016z"/>
	<path fill="#83B3BD" d="M3875.178,470.096c-1.927-2.144-5.226-2.32-7.367-0.396c-2.145,1.925-2.32,5.222-0.397,7.366
		c0.584,0.649,14.112,16.083,0,31.807c-1.923,2.145-1.746,5.442,0.397,7.366c0.996,0.895,2.242,1.335,3.482,1.335
		c1.43,0,2.854-0.584,3.885-1.733C3891.416,497.75,3882.277,478.007,3875.178,470.096z"/>
	<path fill="#83B3BD" d="M3891.664,455.554c-1.926-2.145-5.225-2.32-7.366-0.397c-2.143,1.925-2.321,5.224-0.396,7.365
		c1.115,1.242,27.012,30.793,0,60.893c-1.926,2.145-1.746,5.44,0.396,7.366c0.997,0.895,2.242,1.335,3.484,1.335
		c1.429,0,2.852-0.585,3.882-1.731C3924.859,493.396,3892.001,455.928,3891.664,455.554z"/>
	<path fill="#83B3BD" d="M3925.08,474.667c-5.303-17.724-15.758-29.509-16.2-30.002c-1.927-2.146-5.226-2.321-7.366-0.398
		c-2.144,1.926-2.321,5.225-0.397,7.366c0.094,0.104,9.33,10.517,13.97,26.024c6.118,20.446,1.416,39.504-13.97,56.647
		c-1.924,2.146-1.745,5.442,0.397,7.366c0.994,0.894,2.241,1.335,3.483,1.335c1.428,0,2.853-0.584,3.883-1.732
		C3931.273,516.321,3930.051,491.281,3925.08,474.667z"/>
</g>
<path fill="#83B3BD" d="M1564.182,439.798c0.012-1.581-0.693-3.085-1.92-4.084c-1.227-0.998-2.84-1.387-4.387-1.057l-68.6,14.66
	c-2.393,0.512-4.107,2.614-4.127,5.061l-0.473,61.435c-3.822-2.274-8.452-3.63-13.449-3.669h-0.222
	c-13.061,0-23.755,9.07-23.84,20.223c-0.086,11.247,10.568,20.48,23.749,20.583h0.219c13.063,0,23.762-9.069,23.849-20.219l0,0l0,0
	l0.411-53.551l58.151-12.428l-0.265,34.399c-3.823-2.274-8.453-3.631-13.451-3.668l-0.221-0.001
	c-13.062,0-23.759,9.069-23.845,20.218c-0.085,11.25,10.57,20.485,23.752,20.587h0.219c12.045,0,22.059-7.716,23.618-17.659
	c0.127-0.445,0.218-0.905,0.222-1.392L1564.182,439.798z M1471.132,542.517h-0.138c-7.304-0.056-13.438-4.67-13.397-10.073
	c0.041-5.439,6.058-9.866,13.409-9.866h0.143c7.304,0.057,13.441,4.669,13.399,10.075
	C1484.506,538.089,1478.487,542.517,1471.132,542.517z M1495.452,471.165l0.097-12.519l58.15-12.432l-0.095,12.523L1495.452,471.165
	z M1539.732,527.857h-0.139c-7.305-0.058-13.439-4.673-13.399-10.076c0.042-5.44,6.057-9.865,13.412-9.865l0.142,0.001
	c7.305,0.056,13.442,4.668,13.401,10.073C1553.107,523.43,1547.089,527.857,1539.732,527.857z"/>
<g>
	<path fill="#83B3BD" d="M1753.211,464.234c-5.575-12.49-17.414-20.564-30.159-20.564c-12.91,0-21.203,5.746-26.012,11.873
		c-4.812-6.127-13.103-11.873-26.015-11.873c-12.742,0-24.58,8.074-30.155,20.564c-5.765,12.912-3.222,27.287,6.795,38.453
		c24.257,27.043,45.69,46.211,45.904,46.401c0.987,0.882,2.23,1.322,3.471,1.322s2.481-0.44,3.472-1.322
		c0.211-0.19,21.646-19.358,45.901-46.402C1756.433,491.521,1758.972,477.146,1753.211,464.234z M1738.646,495.72
		c-18.144,20.229-34.657,35.957-41.605,42.403c-6.95-6.446-23.462-22.174-41.609-42.403c-7.295-8.134-9.13-18.058-5.035-27.233
		c3.841-8.604,12.131-14.383,20.63-14.383c16.812,0,20.583,12.494,20.946,13.879c0.573,2.334,2.664,3.977,5.068,3.977
		c2.402,0,4.495-1.643,5.066-3.977c0.138-0.567,3.596-13.879,20.945-13.879c8.501,0,16.792,5.779,20.631,14.383
		C1747.778,477.663,1745.944,487.586,1738.646,495.72z"/>
	<path fill="#83B3BD" d="M1722.999,459.79c-2.863-0.397-5.484,1.609-5.873,4.464c-0.39,2.854,1.609,5.482,4.464,5.871
		c0.273,0.039,6.694,1.018,7.305,10.198c0.185,2.756,2.477,4.869,5.198,4.869c0.117,0,0.235-0.003,0.353-0.013
		c2.875-0.188,5.05-2.674,4.857-5.55C1738.37,465.566,1728.23,460.501,1722.999,459.79z"/>
	<path fill="#83B3BD" d="M1727.782,487.449c-1.371,0-2.713,0.559-3.69,1.523c-0.965,0.963-1.525,2.31-1.525,3.69
		c0,1.367,0.561,2.711,1.525,3.688c0.979,0.967,2.32,1.528,3.69,1.528c1.368,0,2.712-0.562,3.689-1.528
		c0.966-0.977,1.526-2.319,1.526-3.688c0-1.382-0.561-2.729-1.526-3.69C1730.495,488.007,1729.15,487.449,1727.782,487.449z"/>
</g>
<g>
	<path fill="#83B3BD" d="M2518.071,483.512c0.37-6.019-1.185-11.468-4.541-15.703c-3.886-4.9-9.827-7.711-16.306-7.711
		c-4.065,0-8.045,1.105-11.629,3.183c-6.679-9.354-16.096-14.604-26.52-14.604c-10.303,0-20.207,5.269-25.85,13.743
		c-4.556,6.844-5.885,14.823-3.907,22.913c-15.666,6.854-19.79,19.874-18.327,29.615c1.879,12.491,12.015,21.558,24.084,21.558
		c0.464,0,46.722,0.148,74.746,0.148c18.432,0,27.749-12.938,28.605-24.963C2539.218,500.656,2533.089,487.863,2518.071,483.512z
		 M2528.021,510.949c-0.541,7.6-6.379,15.271-18.198,15.271c-28.011,0-74.25-0.147-74.729-0.147
		c-7.799,0-12.838-6.378-13.785-12.676c-1.349-8.971,4.657-16.423,16.064-19.933c1.406-0.433,2.564-1.441,3.189-2.773
		c0.623-1.334,0.656-2.867,0.09-4.226c-2.713-6.481-2.269-12.97,1.257-18.265c3.733-5.608,10.312-9.093,17.167-9.093
		c8.342,0,15.615,5.048,20.482,14.218c0.771,1.45,2.181,2.453,3.805,2.707c1.617,0.252,3.271-0.273,4.447-1.421
		c2.693-2.631,6.039-4.081,9.414-4.081c3.271,0,6.237,1.37,8.131,3.759c2.326,2.938,2.939,7.122,1.772,12.104
		c-0.333,1.427-0.052,2.926,0.772,4.133c0.822,1.209,2.117,2.014,3.564,2.224C2523.675,494.498,2528.58,503.15,2528.021,510.949z"/>
	<path fill="#83B3BD" d="M2457.216,464.341c-10.735,0.948-14.012,9.511-13.597,15.035c0.182,2.398,2.184,4.221,4.547,4.221
		c0.117,0,0.231-0.005,0.35-0.013c2.515-0.19,4.397-2.382,4.207-4.896c-0.083-1.115,0.051-4.791,5.295-5.256
		c2.511-0.221,4.365-2.436,4.146-4.944C2461.943,465.977,2459.729,464.107,2457.216,464.341z"/>
</g>
<g>
	<path fill="#83B3BD" d="M3269.305,498.076c16.618,0,30.137-13.519,30.137-30.135c0-16.617-13.519-30.137-30.137-30.137
		c-16.617,0-30.137,13.52-30.137,30.137C3239.168,484.558,3252.688,498.076,3269.305,498.076z M3269.305,448.237
		c10.865,0,19.704,8.839,19.704,19.704c0,10.864-8.839,19.702-19.704,19.702s-19.705-8.838-19.705-19.702
		C3249.6,457.076,3258.439,448.237,3269.305,448.237z"/>
	<path fill="#83B3BD" d="M3283.11,499.197c-1.708-0.545-3.578-0.171-4.945,0.987l-8.86,7.496l-8.856-7.496
		c-1.371-1.158-3.242-1.532-4.947-0.987c-8.694,2.759-37.062,12.946-37.062,28.164c0,2.881,2.336,5.216,5.219,5.216h91.3
		c2.881,0,5.217-2.335,5.217-5.216C3320.173,512.144,3291.805,501.956,3283.11,499.197z M3232.469,522.146
		c4.959-4.196,14.325-8.896,23.48-12.102l9.986,8.449c1.943,1.646,4.795,1.646,6.736,0l9.989-8.449
		c9.156,3.204,18.519,7.904,23.479,12.101L3232.469,522.146L3232.469,522.146z"/>
	<path fill="#83B3BD" d="M3332.014,498.855c-1.934-0.958-4.279-0.168-5.24,1.766c-0.959,1.933-0.17,4.282,1.762,5.244
		c3.193,1.591,8.887,5.26,11.66,8.985h-13.907c-2.16,0-3.911,1.749-3.911,3.911c0,2.161,1.751,3.912,3.911,3.912h19.426
		c2.16,0,3.911-1.751,3.911-3.912C3349.624,507.896,3333.814,499.75,3332.014,498.855z"/>
	<path fill="#83B3BD" d="M3312.623,492.183c-3.201,0-6.211-1.245-8.475-3.511c-1.527-1.528-4.006-1.528-5.533-0.003
		c-1.526,1.53-1.526,4.008,0,5.536c3.74,3.74,8.716,5.801,14.008,5.801c10.924,0,19.811-8.886,19.811-19.812
		c0-10.922-8.887-19.809-19.811-19.809c-2.67,0-5.264,0.524-7.709,1.56c-1.992,0.841-2.924,3.137-2.083,5.125
		c0.842,1.99,3.14,2.925,5.126,2.084c1.479-0.624,3.049-0.943,4.666-0.943c6.609,0,11.986,5.377,11.986,11.983
		C3324.609,486.806,3319.232,492.183,3312.623,492.183z"/>
</g>
<path fill="#83B3BD" d="M1861.225,744.169c-0.772,0-1.55-0.173-2.271-0.522c-1.8-0.87-2.943-2.694-2.943-4.694v-89.196
	c0-1.999,1.145-3.822,2.943-4.692c1.8-0.873,3.938-0.637,5.507,0.602l56.433,44.6c1.251,0.987,1.981,2.496,1.981,4.092
	c0,1.597-0.73,3.104-1.981,4.092l-56.433,44.6C1863.52,743.787,1862.377,744.169,1861.225,744.169z M1866.442,660.527v67.653
	l42.804-33.827L1866.442,660.527z"/>
<path fill="#83B3BD" d="M2341.686,744.258h-89.188c-3.241,0-5.868-2.627-5.868-5.867v-89.195c0-3.242,2.627-5.869,5.868-5.869
	h89.188c3.239,0,5.866,2.627,5.866,5.869v89.195C2347.552,741.631,2344.925,744.258,2341.686,744.258z M2258.364,732.521h77.45
	v-77.46h-77.45V732.521z"/>
<g>
	<path fill="#83B3BD" d="M1703.509,690.246l-56.097-44.333c-1.57-1.239-3.708-1.474-5.508-0.603
		c-1.799,0.871-2.942,2.695-2.942,4.695v88.666c0,2,1.144,3.822,2.942,4.693c0.723,0.35,1.499,0.522,2.271,0.522
		c1.153,0,2.297-0.382,3.236-1.125l56.097-44.333c1.252-0.989,1.982-2.497,1.982-4.094
		C1705.491,692.745,1704.761,691.236,1703.509,690.246z M1649.393,727.902v-67.125l42.47,33.561L1649.393,727.902z"/>
	<path fill="#83B3BD" d="M1727.008,646.321c-3.242,0-5.868,2.627-5.868,5.869v85.358c0,3.24,2.626,5.867,5.868,5.867
		c3.24,0,5.867-2.627,5.867-5.867V652.19C1732.875,648.948,1730.249,646.321,1727.008,646.321z"/>
</g>
<g>
	<path fill="#83B3BD" d="M1543.43,644.781c-1.798-0.87-3.938-0.638-5.508,0.602l-56.095,44.333c-1.252,0.99-1.981,2.499-1.981,4.093
		c0,1.599,0.729,3.104,1.981,4.093l56.095,44.333c0.941,0.744,2.083,1.125,3.236,1.125c0.772,0,1.55-0.174,2.271-0.521
		c1.801-0.873,2.943-2.697,2.943-4.696v-88.665C1546.374,647.476,1545.23,645.652,1543.43,644.781z M1535.941,727.37l-42.468-33.562
		l42.468-33.562V727.37z"/>
	<path fill="#83B3BD" d="M1457.395,645.791c-3.24,0-5.867,2.627-5.867,5.867v85.358c0,3.242,2.627,5.869,5.867,5.869
		c3.241,0,5.868-2.627,5.868-5.869v-85.358C1463.263,648.417,1460.636,645.791,1457.395,645.791z"/>
</g>
<path fill="#83B3BD" d="M2687.389,745.199c-28.344,0-51.402-23.062-51.402-51.405c0-28.346,23.06-51.405,51.402-51.405
	c28.344,0,51.405,23.061,51.405,51.405C2738.794,722.136,2715.732,745.199,2687.389,745.199z M2687.389,654.125
	c-21.873,0-39.669,17.795-39.669,39.669c0,21.873,17.796,39.668,39.669,39.668c21.875,0,39.669-17.795,39.669-39.668
	C2727.059,671.919,2709.264,654.125,2687.389,654.125z"/>
<g>
	<path fill="#83B3BD" d="M2468.246,642.494c-4.321,0-7.825,3.503-7.825,7.823v89.196c0,4.321,3.504,7.823,7.825,7.823
		s7.823-3.502,7.823-7.823v-89.196C2476.069,645.997,2472.566,642.494,2468.246,642.494z"/>
	<path fill="#83B3BD" d="M2515.018,642.494c-4.321,0-7.825,3.503-7.825,7.823v89.196c0,4.321,3.504,7.823,7.825,7.823
		c4.318,0,7.822-3.502,7.822-7.823v-89.196C2522.84,645.997,2519.336,642.494,2515.018,642.494z"/>
</g>
<g>
	<path fill="#83B3BD" d="M3068.301,715.046l17.605,0.137c0.013,0,0.06,0,0.072,0c6.295,0,12.521-6.166,12.567-12.447l0.481-63.169
		c0.048-6.213-6.233-12.592-12.446-12.641l-17.677-0.133c-6.295,0-12.52,6.163-12.563,12.446l-0.483,63.167
		c-0.025,2.983,1.381,6.139,3.854,8.647C3062.186,713.569,3065.316,715.024,3068.301,715.046z M3066.768,639.396
		c0.127-0.718,1.49-2.061,2.132-2.173l17.523,0.13c0.718,0.128,2.062,1.493,2.177,2.135l-0.479,63.088
		c-0.127,0.709-1.464,2.032-2.188,2.174l-17.471-0.129c-0.716-0.129-2.059-1.494-2.171-2.133L3066.768,639.396z"/>
	<path fill="#83B3BD" d="M3104.498,749.501l-23.094-0.176l0.101-12.881c0.02-2.522-2.009-4.579-4.53-4.602c-0.012,0-0.021,0-0.035,0
		c-2.502,0-4.543,2.021-4.562,4.527l-0.101,12.883l-23.091-0.176c-0.014,0-0.024,0-0.037,0c-2.504,0-4.543,2.021-4.562,4.527
		c-0.02,2.521,2.008,4.581,4.529,4.601l27.656,0.213l0,0l0,0l27.657,0.211c0.013,0,0.023,0,0.036,0c2.504,0,4.544-2.02,4.562-4.529
		C3109.049,751.582,3107.02,749.523,3104.498,749.501z"/>
	<path fill="#83B3BD" d="M3108.732,668.317c-0.013,0-0.025,0-0.039,0c-2.504,0-4.541,2.021-4.562,4.528l-0.299,38.853
		c-0.017,2.252-0.909,4.359-2.515,5.939c-1.604,1.58-3.722,2.434-5.979,2.425l-36.545-0.281c-2.252-0.017-4.362-0.908-5.942-2.515
		c-1.578-1.604-2.439-3.728-2.423-5.979l0.296-38.851c0.021-2.521-2.008-4.58-4.529-4.601c-0.011,0-0.021,0-0.034,0
		c-2.504,0-4.543,2.021-4.562,4.529l-0.298,38.85c-0.037,4.69,1.756,9.112,5.049,12.455c3.289,3.343,7.686,5.202,12.375,5.238
		l36.546,0.278c0.048,0,0.093,0,0.14,0c4.638,0,9.008-1.787,12.315-5.046c3.341-3.292,5.202-7.687,5.236-12.377l0.3-38.852
		C3113.281,670.395,3111.252,668.336,3108.732,668.317z"/>
</g>
<g>
	<path fill="#83B3BD" d="M3315.102,646.623c-11.027-11.198-25.76-17.433-41.476-17.553c-32.408-0.293-59.044,25.944-59.29,58.389
		l-0.271,35.158c-0.02,2.881,2.295,5.232,5.179,5.258c0.012,0,0.024,0,0.041,0c2.86,0,5.192-2.309,5.215-5.177l0.271-35.157
		c0.202-26.568,21.879-48.042,48.4-48.042c0.125,0,0.252,0,0.377,0.004c12.93,0.099,25.048,5.228,34.122,14.441
		c9.073,9.212,14.017,21.405,13.915,34.338l-0.27,35.157c-0.021,2.883,2.297,5.234,5.179,5.258c0.012,0,0.025,0,0.039,0
		c2.862,0,5.194-2.312,5.216-5.178l0.27-35.158C3332.136,672.645,3326.13,657.823,3315.102,646.623z"/>
	<path fill="#83B3BD" d="M3291.998,688.735c-0.011,0-0.021,0-0.035,0c-2.504,0-4.544,2.02-4.562,4.527l-0.449,58.492
		c-0.02,2.521,2.008,4.579,4.53,4.599l0.344,0.003l0,0c18.076,0,22.938-11.239,22.985-17.184l0.252-32.899
		c0.003-0.479-0.055-4.811-3.133-9.109C3309.209,693.367,3303.543,688.823,3291.998,688.735z M3305.684,739.02
		c-0.055,1.2-0.801,6.578-9.567,7.908l0.374-48.697c8.741,1.461,9.406,6.838,9.444,7.975L3305.684,739.02z"/>
	<path fill="#83B3BD" d="M3255.357,688.453h-0.341c-18.079,0-22.942,11.24-22.987,17.183l-0.254,32.902
		c-0.002,0.479,0.055,4.809,3.136,9.106c2.72,3.795,8.384,8.34,19.931,8.429c0.01,0,0.021,0,0.034,0c2.503,0,4.544-2.02,4.562-4.529
		l0.448-58.492c0.01-1.209-0.462-2.373-1.311-3.235C3257.729,688.952,3256.57,688.462,3255.357,688.453z M3250.35,746.579
		c-8.741-1.462-9.407-6.837-9.443-7.974l0.251-32.815c0.055-1.2,0.801-6.579,9.566-7.911L3250.35,746.579z"/>
</g>
<g>
	<path fill="#83B3BD" d="M3458.768,636.556c-1.946-0.808-4.192-0.361-5.683,1.133l-26.964,26.962h-13.412
		c-2.881,0-5.216,2.334-5.216,5.215v46.301c0,2.881,2.335,5.215,5.216,5.215h13.412l26.964,26.962
		c0.996,0.998,2.331,1.53,3.688,1.53c0.672,0,1.352-0.13,1.995-0.398c1.949-0.808,3.221-2.71,3.221-4.817V641.375
		C3461.987,639.265,3460.716,637.363,3458.768,636.556z M3451.555,732.062l-19.584-19.587c-0.977-0.977-2.305-1.527-3.688-1.527
		h-10.356v-35.866h10.356c1.384,0,2.712-0.549,3.688-1.527l19.584-19.586V732.062z"/>
	<path fill="#83B3BD" d="M3479.625,670.143c-1.926-2.145-5.225-2.32-7.366-0.397c-2.143,1.925-2.321,5.224-0.396,7.366
		c0.582,0.649,14.111,16.086,0,31.809c-1.926,2.146-1.746,5.443,0.396,7.364c0.995,0.895,2.242,1.335,3.484,1.335
		c1.428,0,2.852-0.584,3.882-1.731C3495.863,697.795,3486.727,678.054,3479.625,670.143z"/>
	<path fill="#83B3BD" d="M3496.112,655.602c-1.925-2.145-5.222-2.32-7.364-0.397c-2.143,1.924-2.322,5.221-0.396,7.366
		c1.113,1.242,27.013,30.792,0,60.891c-1.926,2.146-1.746,5.442,0.396,7.367c0.994,0.895,2.24,1.334,3.482,1.334
		c1.429,0,2.853-0.586,3.882-1.731C3529.309,693.444,3496.449,655.976,3496.112,655.602z"/>
	<path fill="#83B3BD" d="M3529.528,674.713c-5.302-17.725-15.757-29.508-16.2-30.004c-1.926-2.145-5.227-2.318-7.367-0.396
		c-2.143,1.926-2.32,5.225-0.396,7.366c0.093,0.104,9.329,10.517,13.969,26.023c6.118,20.445,1.418,39.506-13.969,56.649
		c-1.925,2.144-1.746,5.441,0.396,7.366c0.997,0.895,2.242,1.335,3.484,1.335c1.428,0,2.852-0.587,3.883-1.73
		C3535.723,716.369,3534.5,691.327,3529.528,674.713z"/>
</g>
<path fill="#83B3BD" d="M3714.213,640.461c-2.035-2.034-5.341-2.034-7.376,0l-18.209,18.212v-17.018
	c0-2.108-1.271-4.012-3.221-4.818c-1.949-0.807-4.194-0.361-5.685,1.132l-26.963,26.962h-13.413c-2.879,0-5.215,2.334-5.215,5.216
	v43.021l-19.229,19.229c-2.037,2.036-2.037,5.341,0,7.378c1.018,1.018,2.353,1.527,3.688,1.527c1.333,0,2.669-0.511,3.688-1.527
	l18.109-18.111h12.371l26.963,26.962c0.997,0.998,2.331,1.526,3.688,1.526c0.674,0,1.35-0.131,1.995-0.396
	c1.949-0.807,3.221-2.709,3.221-4.818v-71.512l25.585-25.585C3716.25,645.803,3716.25,642.5,3714.213,640.461z M3644.564,675.363
	h10.355c1.384,0,2.71-0.549,3.688-1.527l19.586-19.586v14.856l-33.631,33.629v-27.372H3644.564z M3678.195,732.343l-19.586-19.586
	c-0.979-0.977-2.305-1.525-3.688-1.525h-4.099l27.373-27.373V732.343z"/>
<path fill="#83B3BD" d="M1168.63,639.847c0.012-1.582-0.694-3.086-1.92-4.084c-1.226-1-2.84-1.389-4.386-1.061l-68.602,14.661
	c-2.392,0.513-4.106,2.616-4.126,5.062l-0.472,61.435c-3.823-2.274-8.452-3.629-13.449-3.668l-0.221-0.002
	c-13.061,0-23.755,9.071-23.841,20.222c-0.085,11.249,10.567,20.48,23.749,20.584l0.219,0.002c13.064,0,23.761-9.07,23.848-20.22
	v-0.002l0,0l0.411-53.551l58.152-12.428l-0.264,34.401c-3.824-2.274-8.454-3.632-13.451-3.669l-0.223-0.002
	c-13.062,0-23.757,9.071-23.843,20.222c-0.085,11.249,10.569,20.483,23.751,20.584l0.217,0.001c12.046,0,22.06-7.717,23.619-17.66
	c0.127-0.445,0.218-0.904,0.223-1.391L1168.63,639.847z M1075.581,742.565l-0.138-0.003c-7.305-0.056-13.438-4.669-13.397-10.07
	c0.041-5.441,6.058-9.869,13.408-9.869l0.141,0.002c7.306,0.054,13.442,4.668,13.401,10.073
	C1088.955,738.137,1082.936,742.565,1075.581,742.565z M1099.901,671.211l0.097-12.519l58.15-12.431l-0.097,12.522L1099.901,671.211
	z M1144.181,727.905l-0.138-0.001c-7.304-0.059-13.439-4.671-13.398-10.075c0.041-5.441,6.057-9.867,13.41-9.867l0.142,0.002
	c7.307,0.056,13.442,4.669,13.401,10.073C1157.556,723.479,1151.538,727.905,1144.181,727.905z"/>
<g>
	<path fill="#83B3BD" d="M1357.66,664.281c-5.576-12.493-17.414-20.563-30.159-20.563c-12.91,0-21.203,5.742-26.012,11.87
		c-4.812-6.128-13.102-11.87-26.016-11.87c-12.741,0-24.579,8.07-30.155,20.563c-5.765,12.911-3.222,27.286,6.795,38.452
		c24.257,27.043,45.689,46.211,45.904,46.402c0.987,0.881,2.23,1.321,3.472,1.321s2.48-0.44,3.472-1.321
		c0.211-0.191,21.646-19.359,45.9-46.402C1360.882,691.567,1363.421,677.192,1357.66,664.281z M1343.096,695.767
		c-18.145,20.23-34.659,35.957-41.606,42.403c-6.951-6.446-23.462-22.173-41.61-42.403c-7.294-8.133-9.13-18.058-5.035-27.234
		c3.841-8.602,12.131-14.383,20.63-14.383c16.812,0,20.582,12.495,20.946,13.879c0.573,2.336,2.664,3.977,5.068,3.977
		c2.401,0,4.496-1.641,5.065-3.977c0.138-0.565,3.597-13.879,20.946-13.879c8.502,0,16.792,5.781,20.63,14.383
		C1352.227,677.709,1350.395,687.634,1343.096,695.767z"/>
	<path fill="#83B3BD" d="M1327.448,659.837c-2.863-0.397-5.484,1.609-5.874,4.461c-0.391,2.856,1.608,5.483,4.465,5.874
		c0.271,0.039,6.693,1.016,7.304,10.198c0.185,2.756,2.476,4.867,5.199,4.867c0.117,0,0.233-0.003,0.351-0.012
		c2.876-0.189,5.051-2.675,4.86-5.549C1342.818,665.614,1332.679,660.547,1327.448,659.837z"/>
	<path fill="#83B3BD" d="M1332.23,687.495c-1.37,0-2.712,0.56-3.689,1.524c-0.966,0.963-1.526,2.308-1.526,3.69
		c0,1.367,0.561,2.71,1.526,3.688c0.979,0.965,2.32,1.528,3.689,1.528c1.368,0,2.714-0.563,3.69-1.528
		c0.965-0.979,1.526-2.32,1.526-3.688c0-1.384-0.562-2.729-1.526-3.69C1334.944,688.054,1333.599,687.495,1332.23,687.495z"/>
</g>
<path fill="#83B3BD" d="M3894.275,751.254c-0.983,0-1.974-0.279-2.836-0.841l-30.528-19.8l-30.525,19.8
	c-1.821,1.182-4.185,1.112-5.935-0.179c-1.747-1.286-2.516-3.521-1.926-5.612l9.561-33.923l-28.532-24.146
	c-1.616-1.37-2.247-3.585-1.59-5.6c0.658-2.014,2.472-3.435,4.587-3.585l34.219-2.464l15.396-33.725
	c0.848-1.855,2.701-3.049,4.745-3.049c2.042,0,3.896,1.192,4.745,3.049l15.399,33.725l34.216,2.464
	c2.116,0.15,3.929,1.571,4.586,3.585c0.657,2.015,0.031,4.229-1.59,5.6l-28.533,24.146l9.562,33.923
	c0.591,2.091-0.177,4.326-1.926,5.612C3896.454,750.913,3895.366,751.254,3894.275,751.254z M3860.911,719.179
	c0.987,0,1.978,0.281,2.841,0.844l21.747,14.105l-6.712-23.829c-0.557-1.966,0.087-4.074,1.648-5.396l21.325-18.044l-24.543-1.771
	c-1.903-0.136-3.577-1.3-4.368-3.036l-11.938-26.142l-11.938,26.142c-0.791,1.736-2.468,2.9-4.368,3.036l-24.543,1.771
	l21.327,18.044c1.561,1.322,2.207,3.432,1.65,5.396l-6.718,23.829l21.753-14.105C3858.938,719.46,3859.923,719.179,3860.911,719.179
	z"/>
<g>
	<path fill="#83B3BD" d="M2122.521,683.559c0.367-6.019-1.187-11.469-4.541-15.705c-3.889-4.899-9.83-7.707-16.308-7.707
		c-4.063,0-8.046,1.104-11.629,3.18c-6.679-9.354-16.094-14.604-26.519-14.604c-10.303,0-20.208,5.269-25.851,13.742
		c-4.554,6.845-5.884,14.824-3.905,22.914c-15.666,6.854-19.792,19.873-18.327,29.614c1.879,12.491,12.013,21.558,24.082,21.558
		c0.465,0,46.722,0.148,74.746,0.148c18.434,0,27.749-12.938,28.606-24.964C2143.666,700.703,2137.538,687.91,2122.521,683.559z
		 M2132.473,710.996c-0.543,7.599-6.382,15.271-18.201,15.271c-28.009,0-74.248-0.146-74.727-0.146
		c-7.801,0-12.84-6.378-13.788-12.677c-1.347-8.97,4.659-16.422,16.067-19.933c1.404-0.433,2.562-1.441,3.188-2.772
		c0.624-1.335,0.656-2.868,0.089-4.227c-2.713-6.481-2.268-12.969,1.26-18.264c3.731-5.609,10.312-9.093,17.165-9.093
		c8.342,0,15.616,5.048,20.481,14.217c0.772,1.448,2.181,2.452,3.807,2.707c1.617,0.252,3.271-0.273,4.446-1.421
		c2.693-2.631,6.04-4.081,9.413-4.081c3.272,0,6.238,1.371,8.131,3.761c2.328,2.938,2.94,7.121,1.775,12.104
		c-0.335,1.426-0.054,2.923,0.771,4.131c0.824,1.21,2.12,2.015,3.566,2.223C2128.125,694.544,2133.03,703.195,2132.473,710.996z"/>
	<path fill="#83B3BD" d="M2061.665,664.388c-10.736,0.947-14.011,9.511-13.597,15.035c0.181,2.396,2.184,4.22,4.546,4.22
		c0.116,0,0.231-0.005,0.35-0.013c2.515-0.19,4.397-2.382,4.208-4.896c-0.085-1.115,0.049-4.791,5.295-5.255
		c2.51-0.222,4.365-2.435,4.145-4.945C2066.393,666.023,2064.179,664.154,2061.665,664.388z"/>
</g>
<g>
	<path fill="#83B3BD" d="M2873.753,698.123c16.618,0,30.137-13.521,30.137-30.136c0-16.616-13.519-30.136-30.137-30.136
		c-16.617,0-30.138,13.52-30.138,30.136S2857.136,698.123,2873.753,698.123z M2873.753,648.285c10.866,0,19.706,8.838,19.706,19.702
		s-8.84,19.703-19.706,19.703c-10.864,0-19.703-8.839-19.703-19.703S2862.889,648.285,2873.753,648.285z"/>
	<path fill="#83B3BD" d="M2887.561,699.243c-1.709-0.545-3.58-0.171-4.946,0.987l-8.86,7.496l-8.857-7.496
		c-1.369-1.158-3.241-1.532-4.945-0.987c-8.694,2.759-37.062,12.947-37.062,28.165c0,2.881,2.337,5.215,5.219,5.215h91.302
		c2.879,0,5.215-2.334,5.215-5.215C2924.621,712.19,2896.253,702.001,2887.561,699.243z M2836.919,722.19
		c4.959-4.194,14.323-8.896,23.478-12.102l9.987,8.453c1.946,1.646,4.795,1.646,6.739,0l9.988-8.453
		c9.154,3.205,18.52,7.906,23.479,12.102H2836.919z"/>
	<path fill="#83B3BD" d="M2936.462,698.901c-1.933-0.957-4.277-0.167-5.24,1.766c-0.959,1.934-0.169,4.281,1.763,5.245
		c3.191,1.588,8.886,5.26,11.658,8.984h-13.906c-2.16,0-3.912,1.75-3.912,3.912c0,2.159,1.752,3.911,3.912,3.911h19.425
		c2.163,0,3.914-1.752,3.914-3.911C2954.074,707.941,2938.264,699.795,2936.462,698.901z"/>
	<path fill="#83B3BD" d="M2917.073,692.229c-3.203,0-6.212-1.246-8.477-3.51c-1.528-1.527-4.004-1.527-5.532-0.002
		c-1.527,1.528-1.527,4.006-0.002,5.534c3.741,3.741,8.717,5.803,14.011,5.803c10.923,0,19.81-8.889,19.81-19.812
		c0-10.922-8.887-19.81-19.81-19.81c-2.67,0-5.265,0.525-7.712,1.561c-1.989,0.84-2.924,3.136-2.08,5.124
		c0.84,1.991,3.138,2.925,5.126,2.083c1.478-0.623,3.048-0.941,4.666-0.941c6.607,0,11.985,5.376,11.985,11.983
		C2929.059,686.854,2923.682,692.229,2917.073,692.229z"/>
</g>
</svg>
